/* XPM */
static char * mgm_small_xpm[] = {
"179 50 33 1",
" 	c None",
".	c #0B1012",
"+	c #5E8C98",
"@	c #86D0E0",
"#	c #3F4C62",
"$	c #546E88",
"%	c #71ABB9",
"&	c #485E71",
"*	c #676F9D",
"=	c #828DBE",
"-	c #C6CDEA",
";	c #A7ABBA",
">	c #747EB1",
",	c #586085",
"'	c #6A9AAA",
")	c #4B5068",
"!	c #7FBCCA",
"~	c #B7C8E3",
"{	c #29333C",
"]	c #E1E9F4",
"^	c #3D404B",
"/	c #A9B6E0",
"(	c #849BC5",
"_	c #F9F9F8",
":	c #D6D9DF",
"<	c #ABDEE7",
"[	c #162123",
"}	c #537E87",
"|	c #8AD8E6",
"1	c #87AEBB",
"2	c #96979B",
"3	c #BCBEC2",
"4	c #6E8C9E",
"                   #&1@@@@@@@@!4)                                                                                                                                                  ",
"                 '@|||@}$%|||%@@@@!&                                                                                                                                               ",
"               1||%$!|}$'{||%[%|@}'@<&                                                                                                                                             ",
"               ]<+$%!|$&%{@@${+||%{$@3                                                                                                                                             ",
"              #:]$#'^@%#$+|%}$$||}&<<(                                                                                                                                             ",
"          1%  &!]/[}#@|@@||@@!!|!{'<<+#^}~>                                                                                                                                        ",
"         @@|!+}+:~>}(%1%'4+4%@|||!!<1}+%]]<4                       ,,,,,,,,,)            ),,,,,,,,,,          )),***********,,)     ,,,,,,,,,,)            ,,,,,,,,,,,             ",
"        @@}'|%'4*>>>>**>**^^  ^$//;;/(%<_]!|4                     ),*>>>>>>>,           )*>>>>>>>,))       ),*>>>*,,))))),*>>>>&    ),*>>>>>>>*           )>>>>>>>>,))             ",
"       @|+'%'(>***>>**>>,***  );////;((]_4[!@4                      ,>>*>>>>>,         #*>*>>>>>*#       ),>>>>>,#         ,*>>,      ,>>*>>>>>,         #*>*>>>>>*                ",
"      '@|&&},,)#)),)#,*,###,*=/////>>>>(=#&%%@                      ,>*)*>>>>>)        ,>*,>>>>>*#      )*>>>>>,            )*>,      ,>*&*>>>>>)        ,>*,>>>>>*                ",
"     4@||%{)*),))))))###)))#,*=//(=>>>>*4{#[&@@                     ,>*^&>>>>>*)      ,>*))>>>>>*#     )*>>>>>*#             ),)      ,>*#)>>>>>*)      ,>>#)>>>>>*                ",
"     @!}|!,,**))))))))))))))##)==*>>>>*,('^$|||'                    ,>*  ,>>>>>,     )*>,^)>>>>>*#     ,>>>>>>,                       ,>*#^,>>>>>*     )*>,^)>>>>>*                ",
"    !|%}#$,***,))))))##)##))))),>;=>>>**'!}|||!|,                   ,>*   *>>>>>,    ,>,# )>>>>>*#     *>>>>>>,                       ,>*#  *>>>>>,    *>,  )>>>>>*                ",
"   $|'..^)*>>**&))#^^^^#^#))))))*((>>**,*!|||+{%@                   ,>*   )*>>>>>)  ,>*)  )>>>>>*#    #*>>>>>>)                       ,>*#  )*>>>>>)  ,>*#  )>>>>>*                ",
"   !|@'$***>>**&#)^^^^^^^#)))))),(>>>>*,&&@%{{++@$                  ,>*    ,>>>>>*))**)   )>>>>>*#     *>>>>>>,       ,,*********     ,>*#   )>>>>>>))>>)   )>>>>>*                ",
"  ,||||%,*>>>*,))#^^^^^^^^)))))))*>/=>*,#^+@}'}%@!                  ,>*     ,>>>>>**>,    )>>>>>*#     ,>>>>>>,        #)*>>>>>*)     ,>*#    ,>>>>>**>,    )>>>>>*                ",
"  '|$}@4*>>>**)))^^)*,^^^^^)))),),*;-(>,   !%'|||@                  ,>*     #*>>>>>>*#    )>>>>>*#     )*>>>>>*)         *>>>>>*      ,>*#     *>>>>>>*     )>>>>>*                ",
"  @@}{[&*>>>**,)#^,((*)^^^^^))))))*=~~>,   }@||@$!$                 ,>*#     )*>>>>*)     )>>>>>*#      )*>>>>>*#        *>>>>>*      ,>*)     #*>>>>*)     )>>>>>*                ",
" ,||||%*>>>>>*,))*&,,)^^^^^^^),,))*>/-/*    !!!}{'!                 *>>)      ,>>>>,      ,>>>>>*#       )*>>>>>*)       *>>>>>*      ,>>,      )>>>>,      )>>>>>*                ",
" $|%!@(*>>>>>>*,>;,#))#^^^^)*>>>*,**/-/;*   '%{&++@               ,,>>>*,,     ,*>,     ),*>>>>>>,,)       ),*>>>*,,)))),*>>>>*,    ,,*>>*,,)    ,>>,     ,,*>>>>>>,,)             ",
" !@+&{&*>>*=/;=*(;>)))^^^#,*>>,****>~-~/=   }@@||@|&               ,,,,,,,       #      ),,,,,,,,,,)          )),,****,,*,,,))#     ,,,,,,,,)     ##      ,,,,,,,,,,,)             ",
" @@&[{+*>;/////>*>>,))^^^)***)#),**>3:--=    @|||||$                                                                                                                               ",
" @@{#}+>;//////;***)#)),,,)#^##))**>>;--=    !!%%+@$                                                                                                                               ",
" @|@@!4>;///---~=,)#^),,))#^^^^^))>>>>/-2    !&{{#!$      ;2                                                         3       >3                                                   *",
" @||||@>=//~---::=#{^***))*&#^^^#)>>>>=-]/   !+'}$!}      _>    _;^3]            3 *2                               *>       33                        3                         *2",
" @|@'#!4>;~----]]:~;~;>*,)*,))))^)>>>=;/-]3  4}!@!|}     >_23;^;_:>]]*2223*     2*^3*3 >3 >322^;2 ;23*)3*)3    3)>3)2;^3>;;)^_3;3     *33>^*3*; *3>;> 2*2223)23>  23*3)2223)23>  3 ",
" @![.#!4*(---:]]]]]://=>,))))###^#,*>;///]]2)#),|||$     2_22_>;_>*_;)]]>3]  ] ^3^*2>_^]_^:;33*_3)_*_>;_>2]   )_;_>^:3*_3>];)_3>]3   *_23_*2_2>)_23_>^3^]]>_]>:3 2]>]_^]]>_]>:3 *2 ",
" @@$##'4*>-]]]]]]]]-~//>)),#^^#),****;///-]]*#)#+%@$     3:^*_*3_^>_>^_2^>_    2*^3^>_*:_*_)33;:3;:^_>]:>]2    :_3^^_>>_)^33>_)^];   :;^^_>3:^ 3;^>_^2*^_>^_2^:;^_*^33^_>^_2^:;^3  ",
" @|||!!+^,=-:]]]]]:---/*)**)^#)*>>,***(///-]-#)#^#@$     ];^2_^33^>_^>_^^;:    3^*2 >_:*_:;^3:]>:_*^_:;3:]    )]_2^*_*33^^]2;]^)_>   _>^*_)_2  _>^2]^3^>_))_>^_>>_^^:;>_))_>^_>*2  ",
" !|||||'  &>/]]]]]:--~*))),,)),,**,),*=///3]_2{[{}|&    )_>^3]^_3)3]*2_;2_> >*2*^3  *_]^__) ;_;>_:  ]_*3_2 **)]3::^2_^:_>3]):3^>_*** ]3>]3)_>  _32_32* ;_^>_^>_)>_23_>;_^>_^>_)3   ",
" $@@${#!   )*>/:]]:-;,#))))**))#&*,)))*=///:]]@@'@@      3  32 ;3 >3*33;3*  ]*2      3> 32  *3)*3*  2;^23  ]223)>3)2;^_23;) 3> 23^]2 *332^*3   >32_>2  22 2; *3 ^;3;_^22 2; *3)    ",
" ,@%[}'')   *>*,,>=*)^^^))#)&))&)))))))*>>(~:]]@|@!                 ^_2                                              >_)                      2;^>])            3>^33              ",
"  @!$}[$}   *>,&*#^{^^^^^#)))))*))))))##,*-]~]_]@@}                  _>                                              2_                       >]_:*             ;__;               ",
"  !@}[&!!  )*>**,#^{^^^^^^#)))),**,##))#)(-2#)=~@@&                                                                                                                                ",
"  }@||||%4,*,),*#^^^^^^{^^#))#^#,****,)&=--(#^{>@!                                                                                                                                 ",
"  )!||@&['=*#)^^^^^##^^^{^^))#^^#)*****>/:_-=*)>@$                                                                                                                                 ",
"   +|![.{&!*,)#^#))))^^^{{^#))#^^^)**>*,>~:~;**(!                                                                                                                                  ",
"   )!|+$[{$%*))))))))#^^^{{^#^^^^^#)))))**>==*>!$                                                                            >                                                     ",
"    }@|$[}!@',))*,))))#^^^^^^^^^^^^))),**=>&^&!+                                                                            >_>            _3                                      ",
"     4@%}@|@@',,**,))#))^^^^^^^^{{#)  ^%!(>**!@                                                                             >_>                                                    ",
"      !@||@@@@%***)#,)))^^)#^^^^{)    !@@@@@@@                                                       >_2]>):__3  _33__>  3_]3_>^;__:> 3_>_ _3 3_>__3  >]_;_3                       ",
"      )@@@@@@@@!>*,)*))#^#)))#^^)^  &@@@@@@@@4                                                       >_]>):]>2_;^__2>]_^;_22]_>2_2>]]^3_3> _3^3_3>3_>*_3>:_3                       ",
"       ,@@@@@@@@@%***&##^))))))),^)!@@@@@@@@4                                                        >_>  _]3;]_^_3^^3_^_:^^2_>3_333_>3_   _3^3_^^>_>3_)^)_3                       ",
"         @@@@@@@@@@%4*)##))))#^,+!@@@@@@@@@4                                                         >_>  _:2333^_3  3_^_3^^>_>3_>333*3_   _3^3_  >_>3_^^^_3                       ",
"          1@@@@@@@@@@@!'++44'%!@@@@@@@@@@@&                                                          >_>  ]:^^>*^_3  3_^:_)):_>;_)^*>^3_   _3^3_  >_>2_2^;_3 *>  >  >*             ",
"           '@@@@@@@@@@@@@@@@@@@@@@@@@@@@@                                                            >_>  >____> _3  3_ )]__]_>)]___3 3_   _3^3_  >_>)]__]_3^3_ >_> _3             ",
"            &!@@@@@@@@@@@@@@@@@@@@@@@@@4                                                              >    )>>   >   *>   >*     >>)  *     * *>   >)^^>>^_3 *>  >  >*             ",
"              &!@@@@@@@@@@@@@@@@@@@@@4                                                                                                                _;^3_>                       ",
"                 '@@@@@@@@@@@@@@@@!&                                                                                                                  ;__]>                        ",
"                   #&1@@@@@@@@!4)                                                                                                                                                  "};
