/* XPM */
/* Animated: 40x40x12@80 */
static char * fishframe_xpm[] = {
"480 40 28 1",
" 	c None",
".	c None",
"+	c #7999B4",
"@	c #4B6C99",
"#	c #8EB0C8",
"$	c #27536C",
"%	c #111E1E",
"&	c #04423C",
"*	c #147A64",
"=	c #059B9A",
"-	c #06E1E0",
";	c #1CC2A4",
">	c #2CFEFC",
",	c #3C3E04",
"'	c #84824C",
")	c #EDEEEC",
"!	c #CCCACC",
"~	c #5D602C",
"{	c #A1A20A",
"]	c #E7E809",
"^	c #ACAE6C",
"/	c #BECD18",
"(	c #FCFE4C",
"_	c #479653",
":	c #9CEE4C",
"<	c #46E09D",
"[	c #76D260",
"}	c #CCFA74",
"...................+@......................................+@......................................+@......................................+@......................................+@......................................+@......................................+@......................................+@......................................+@......................................+@......................................+@......................................+@...................",
"..................#+@@....................................#+@@....................................#+@@....................................#+@@....................................#+@@....................................#+@@....................................#+@@....................................#+@@....................................#+@@....................................#+@@....................................#+@@....................................#+@@..................",
".................##+@@@..................................##+@@@..................................##+@@@..................................##+@@@..................................##+@@@..................................##+@@@..................................##+@@@..................................##+@@@..................................##+@@@..................................##+@@@..................................##+@@@..................................##+@@@.................",
"................###+@@@@................................###+@@@@................................###+@@@@................................###+@@@@................................###+@@@@................................###+@@@@................................###+@@@@................................###+@@@@................................###+@@@@................................###+@@@@................................###+@@@@................................###+@@@@................",
"...............####+@@@@@..............................####+@@@@@..............................####+@@@@@..............................####+@@@@@..............................####+@@@@@..............................####+@@@@@..............................####+@@@@@..............................####+@@@@@..............................####+@@@@@..............................####+@@@@@..............................####+@@@@@..............................####+@@@@@...............",
"..............#####+@@@@@@............................#####+@@@@@@............................#####+@@@@@@............................#####+@@@@@@............................#####+@@@@@@............................#####+@@@@@@............................#####+@@@@@@............................#####+@@@@@@............................#####+@@@@@@............................#####+@@@@@@............................#####+@@@@@@............................#####+@@@@@@..............",
".............######+@@@@@@@..........................######+@@@@@@@..........................######+@@@@@@@..........................######+@@@@@@@..........................######+@@@@@@@..........................######+@@@@@@@..........................######+@@@@@@@..........................######+@@@@@@@..........................######+@@@@@@@..........................######+@@@@@@@..........................######+@@@@@@@..........................######+@@@@@@@.............",
"............#######+$$$$@@@@........................#######+$$$$@@@@........................#######@$@@@@@@@........................#######+@@@@@@@@........................#######@$@@@@@@@........................####+@@@@@@@@@@@........................####@@@@@@@@@@@@........................#####+@@@@@@@@@@........................######+@@@@@@@@@........................#######+@@@@@@@@........................#######+$$@@@@@@........................#######+$$@@@@@@............",
"...........######+$%%%%%%$@@@......................######+$%%%%%%@@@@......................######+%%%%$@@@@@@......................########+@@@@@@@@@......................######+&%%%$@@@@@@......................####$%%%%%&@@@@@@@......................##+@%%%%%%&@@@@@@@......................#####@%%%%&@@@@@@@......................######+%%%&@@@@@@@......................########**@@@@@@@@......................#######$&%%$@@@@@@......................######+$%%%%$@@@@@...........",
"..........######+%&=----*%%$@@....................######+%&=-;=*&%@@@@....................######+%*--*%$@@@@@@....................#########$&@@@@@@@@@....................######+%;>-=%$@@@@@@....................####,&;>--=&%$@@@@@@....................##@%&=----=%%$@@@@@@....................####+$&*--=&%$@@@@@@....................######+%&==%$@@@@@@@....................#########$&@@@@@@@@@....................#######+&--*%$@@@@@@....................######+%&=--*&&$@@@@..........",
".........##++#+,%&;->>>--;*%%@@..................##++++@%&;----;=&%$@@@..................####++#$&=;-;=%@@@@@@@..................#######+++**@$$@@@@@@@..................######+%;>>-=&%@@@@@@@..................###@%*->>---;&%$$$$@@@..................##$%=->>>---=&%%@@@$@@..................####+%&-----;&%$@$$@@@..................#######$&--=$%$$$@@@@@..................########++**@$@@@@@@@@..................####++++%=---&%@@@@@@@..................##+++++%&-->>-;&%@@@@@.........",
"........#+$%%$%%=--->>>>---=&%@@................##$%%%%%&;==;----=&%$@@@................####$%%$%&%%&;=&&@@@@@@@................######+$%%%-=%%%%$@@@@@@................#######$*>>*%%&%%%%&@@@@................###@%*>>>>----;&%%%%%&@@................##$&;>>>>----==*%%%%%%$@................####+%;>>---;=*%%%%%%&@@................#######+%=-===%%%%%$@@@@................#######+$%%-*%%%@@@@@@@@................####+%%%%&->>-;%@@@@@@@@................##$%%%%%&-->>>>--=%$@@@@........",
".......#@%')!~%%%%%=;-----;-;&%@@..............##@,%'))@%%%%*=----=&%$@@@..............####+%!)@%~))'&=*&$@@@@@@@..............#######@~))+&&+))~$@@@@@@@..............#######@&>>*'))~%@)!%$@@@@..............###@%*->>>--=&%%%@))'%,$@@..............##$$->>>---;=&%%%%%~!)'%$@..............####+%=>----===*$%~%!)~%@@..............#####@@+%&;;===&~'),%@@@@@..............########@%!!*&!!%$@@@@@@@@..............#####%,)'~*-----*%$$$@@@@@..............##$~)!%~%==->>>>--;*%$@@@@.......",
"......##%'))))%'{{,%&*------;;&&@@............##+@~~))))~'{%%&=----=&%@@@@............####+%!)))~))))%*=*%@@@@@@@@............########%!))),,)))!%@@@@@@@@............########%;>-%))))~)))!%@@@@@............####%&->>---*%%{{~))))~~@@@@............##$&->>----=$%%,{{~%))))'%@@............#+$$$%&-----;=*&%%%%~)+)~@@@............#####@%%%%*====&%%))),$@@@@@............#########$!!%&&%!'%@@@@@@@@@............#####@,)))%%=----=%%%%$@@@@@............##+~)+)~%%%%&->----==%%%%%$@......",
".....##@%)),~)+~]]{]{%*;;;;;;==%%$$..........###+',!)~,)',]]{,&=;-;==%%$$$$..........#####+%)!%^#),~)+*==&$@@@@@@@@..........#########~)~,)##),~)~@@@@@@@@@..........########@*>>=+)~,)#^%!)%$@@@@@..........@@@@,%------*,{]],'),~)!,'@@@@..........$@$%-------=&%{]{]]~+)~,))%$@@..........#+%&&&&%&=====*%,']]]~~%!'%@@@..........#####+%&=*%&==*%,/%#%!~%@@@@@@..........##########$!,/$${%!,@@@@@@@@@@..........######$~!%#%/,%;--*%&-*%$@@@@@..........###%'!%~~]]]',%;-;===&%&&&&%$@.....",
"....##+%%))~~)'~]]{]]'%*;;==**%%%%%%%.......####$'~))@~)',]]]{%&===*&%%%%%%@........######+%)!%{+)~~)'%*=*%$@@@@@@@@........##########~)'~)^^)~')~@@@@@@@@@@........########+%;>-&')~~)+^%!)%$@@@@@@........#%%%%%%*;---*%{]]],')~@))~'%@@@@.......%%%%%%&=;-;==&%']]{]]~')~~))%%@@@........##$%=---*%%**=*%%{/]]],+~)'%@@@@........######+%*==*%**%{/]~!~!~%@@@@@@@........###########$'{]$$/{',@@@@@@@@@@@........#######$~!~!~]]{&;=%;--;%$@@@@@@........####%')~+,]]]/{%%==**%%*---=%%@@....",
"...##+%'%'))))%/'/{]~]{%&&&&%%*;---=%......####,~]~+)))),']']{/%&&&%%%=;=&%@@......#######@%''(],))))%,%*&%%$@@@@@@@@......###########,)))!,,!))),@@@@@@@@@@@......########@$%=;&~%)))),](''%$@@@@@@@......##%&--=%%%**&%]{]']{,))))+~]~%@@@@.....%%=----&%%&&&&%{]~]{/'/%))))'%~%@@@......###$&->----&%%&%,']]/]]{~!),,%@@@@......#######+%=--=&%%{]]/~,!!%$@@@@@@@@......############%%//$${'%%@@@@@@@@@@@@......########@%!!,']]]{&%*>>>-%$@@@@@@@......####,~,)!~{]]/]]',%&%%*->>>--&%@@@...",
"...%%%{]/,$!+%']]]{]/]/'%%%&*;------%%....#@%%%%{//,~!!$%]]]]///%%%&;;--;$%@@@....######+%%&&%%{'~!+%~{%%%&*%$@@@@@@@@....############%,!,%&&%,!,%@@@@@@@@@@@@....########+%;*&%%^'%+!~'{%%&&%%@@@@@@@....###%=---;;&%%%]/]]]]]%$!!~%//'%%%%$@....%%->>----;&%%%{/]/]{]]]'%+!$%{]'%%%.....####$&-----==*&%,/]]{]]//~%%%{,%$@@@....########+%;;;=*%%]/{//{%%%%$@@@@@@@@....#############%~/'--~{,%@@@@@@@@@@@@@....########@%%%,/]//]]%&->>-;%$@@@@@@@@....##+@%~]%%,~]]]]{]]/,%&;->>>---&%@@@@..",
".%&==%,]]/~%,{]]]]]]']']{,%&--->>---%$@..#+%&==&%,]/~%%%/]]]]{{{',%=----=$%@@@@..#######$&=>>;*%{{,,']{{%*==&$@@@@@@@@@..#############%~,*->-=*,,%@@@@@@@@@@@@@..#########+*>>;%//({,,{^%=;>>=&&@@@@@@@..####%=>>>--;%,{{/{]]]]/%%%~//,%&==&%$@..@%%-->-----&%,{]']']]]]]]'%%~{]],%=*&%..#####$&----===&'{]/]{]]]]/]{~{{~&*%@@@..#########+%=====*/]{]{/{',&*%$@@@@@@@@..##############%'/~-=,'~%@@@@@@@@@@@@@@..########@%&$~/]]{]/]/;->>-;%$@@@@@@@@@..##+%*&{]/{/]]]]]]/]/]{{*->>----&%@@@@@.",
"$%---=%,]]]]]]]]]]]]/]//~/{,-------=%$@@++$%;---;%,/]]]]]]]]]//{{/,=--;==&%@@@@@++++++++%=>>---;%{//]]/~~&==&$@@@@@@@@@@++++++++++++++%{%-----;%~%@@@@@@@@@@@@@@++++++++++@*>>_{^(((((^%->>>>-*%@@@@@@@@+++++%&---->;~]//]]]]]]]]]]]/%%----=%$@@++$%=-------~{]~//]/]]]]]]]//]]/,%;>-=%$++++++$%=-;====/]/{/{{/]////{{{{,*;&$@@@+++++++++++%*====/]//'/{{{'%=%&@@@@@@@@@+++++++++++++++%~]~-=,{,%@@@@@@@@@@@@@@@+++++++++$&-%/]]]]{]/]/----=%@@@@@@@@@@@+++@*-*,]]]]]]]]]]///{/]:->----=%$@@@@@@",
"$%%;;-=%,]]]]]~~~~~]']']/{~/-----=&%%$$@@@@%%**=;;%,]]]]]~,,,,{{{/]<-==&&%$$$$$@@@@@@@@@&-;&&&;==%{]~,,,%~==&$$$$$$$$$$@@@@@@@@@@%%%%%,~*;&&&&=&,,%%%%%$$$$$$$$@@@@@@@@@@@$*--'%~~~'(^%->-$&&;=%$$$$$$$@@@@@@@%&==--<]]///~~~~~]]]]],%---==%%$$@@@@%%&=;-;--]'/]]']'],,,,,]]]]],%--;=%%$@@@@@@@%&&*====/]{]'']]/~,~{{{{,*;*&$$$@@@@@@@@@@@@&%*===_]/{'{{{~,%%%$$$$$$$$$@@@@@@@@@@@@$%%%%]{~-=,~{%%%%&$$$$$$$$$$@@@@@@@@@@@%&%~{]]]///][---*%$$$$$$$$$$$@@@@@$--&,]]]]'~~]]]{{]/]:---==&&%$$$$$$@",
".@%%%*;=%/]]]:***%,/{/{/~/{/----=&%%$$$..@@@%%%&&;;%{]]]:*&&%%{{'//<-===&%$$$$$..@@@@@@@&&*%%%%%&*%{*&&%%'=*%$$$$$$$$$$..@@@@@@@@%$**%~~;%%%%%%*,,%&&%%$$$$$$$$..@@@@@@@@@$&--/%%&&_(%;=%%%%&;&%$$$$$$$..@@@@@%%&==-<]]{{/,%***]]]]{&--*&%%%$$$..@@@%%*=----]/]~/{]{],%***:]//{%;-=%%%$..@@@@@@$%%&*---/]/{]]///,&&%,{~*-&%&$$$..@@@@@@@@@@@%%*==*{~~{'{{_**%%$$$$$$$$$..@@@@@@@@@@%**&%{]{;;~{'%&&&%$$$$$$$$$$..@@@@@@@@@%%**_]]/]{{]<--=%&$$$$$$$$$$$..@@@$%&;*'],%*&~]]]]]/]]:-;==*%%&$$$$$$.",
"..$$%%*;&{]]]<>-=,//'/'///'[------;$%$....@@@$%%%*-*~]]]<--*%/'{///;----=%$$$$....@@@@@@@&&*%%%%%&&{;;=&,{==&$$$$$$$$$....@@@@@@@&$>>&~~*%%%%%%&,,&=*%%$$$$$$$....@@@@@@@@$=>>(~$--<(*&%%%%%=&%$$$$$$$....@@@$%----->}/]{{]%;--[]]]~*-&%%%%$$$....@%&=--->--<']/]{]']/,=-><///~&-=%%$$....@@@@@%%=-----[]]]''//{{%;;={~=&%$$$$....@@@@@@@@@@%&*==*{{'~{{[--=%$$$$$$$$$....@@@@@@@@@&*-*%]{/**{~{%&=&%$$$$$$$$$....@@@@@@@@$%---:]/{{{]<--;*%$$$$$$$$$$....@@@@%&;'];-;%/]]]{{]]]:-----;%%$$$$$..",
"...$&%%;=]]:<--=,/]]]]]/~]/<-------*%......@@@$%%*-=/]][;==&~]]]//{=---;=%&$$......@@@@@@@&%&***%*={*&*%{~==&$$$$$$$$......@@@@@@$%;-%~<&%****%%*,%*&%$$$$$$$......@@@@@@@$*>>{]%=&*}>=%***&%%$$$$$$$......@@$%-->>>-:]]]]]~&===[]]]-;&%%&$$$......%*->>----<]]~/]]]]]/,*;=_{/{--%%%$......@@@@%=->---==]//]//{/{,&=={_*%&%$$......@@@@@@@@%%=;-=_{{{{{{{&*&%$$$$$$$$......@@@@@@@@@%*%%]]~--,{{%%&%$$$$$$$$$......@@@@@@@$%&-*/]]]]]/[----&%$$$$$$$$......@@%&&=[];=&~]]]]]]]]];->>>--=%$$$$...",
"...%%-;*%]]/%%%%{]]]////{//;-------*%.......@$%--=%%/]]/%%%%{//{{'**=;;;=%&$........@@@@@@$%;---=*%{{,%%~&=*%$$$$$$$........@@@@@@%%%%,~;-----=*,,%%%%$$$$$$........@@@@@@$$--*~%%,](%=->>-*%$$$$$$$........@$%----;=*{{]]]{%%%%/]]/%&--=%$$.......%*----;;;;/]/////]]]'%%%%/{{%*-=%%.......@@@%=----===_{{{{/{{{{%%%{~*=*%$........@@@@@@@%%=-;={{{{{{{{,%%&&$$$$$$........@@@@@@@@%%&%/]~-=,{{%%%%$$$$$$$$........@@@@@@$&%,,{]/////[-->-&%$$$$$$$........@&-;*']%%%]]]]]]]]][-->>---=%$$$....",
"...%&&&%%{]]{''{]]//~,,,,,,=-------*%........$%$&%%,/]]/''''/,,,%%%%$===&%$..........@@@@@$%%&&&&%~{{{~%%%&&%$$$$$$..........@@@@@@$@@%{~&&&&&&,'%$$%$$$$$$..........@@@@@@%&&&%,{]]]'%*&&&%%$$$$$$..........$%*===$%%%%~~~/{'''/]]/,%%&&%$........%&=--;===*,~~,,,~/{//''~~{{~%%&&%%........@@%=---=====,,,,{{{{{~~'{~%&&$..........@@@@@@%%====*{{{{{{{{~%%%$$$$$..........@@@@@@@@@@%,[~-=,_%%$$$$$$$$$$..........@@@@@$%%{]///{/{{;----&%$$$$$$..........$&&%']/{{]]]]]~~~~--------*%$$.....",
"....%%%%%%'{////{',%&*-%%%%%%*====*%%..........%%%%~~{{{{{~~%%&&%%$%%%%%%%............@@@@@$%%,,,{{{',%%%%%%$$$$$$............@@@@@@@@$%{{,,,,'~%%$$$$$$$$............@@@@@@%%$&%%~{]]/,,,%%%$$$$$............%%%%%%$@$&&&%%~{///{{~'%%%%..........%%&&&$$&%%%%%%&&%%,~{{{{{~~%%%%%%..........@%*=====$&%%%%&%%~'{{'~%%%%$............@@@@@%%====*%~'~~{'~%$$$$$$$............@@@@@@@@@@*=%-;%*&$$$$$$$$$$............@@@@@@$%~'{~~'~&;----&%$$$$$............@%%%,{/]]/{%%&%%%%&=;;;;=*%$......",
".......@@$%%,,,,%%&=;--&%$$$%%%%%%%%...........@@@$%%%,,,,%%$=;=%&$$$&&&$..............@@@@@@%,,,,,,%%**%$$$$$$$$..............@@@@@@@@$%,,,,,,%%$$$$$$$$..............@@@@@@@@$;;&%,,,,,,%$$$$$$..............$$$$@@@$&--;&%%,,,,%%%&$$$...........%%%%%%%%$@@%&->;=%%%,,,,%%&$$..............%%***&%%%%%&&-==$%,,%%%&$$..............@@@@%%===*&%,%=%%%&$$$$$$$..............@@@@@@@@$-&%**%&*%$$$$$$$$..............@@@@@@@$%%&=%,%&;--;&%$$$$..............@@$%%%,,%&==-&=%%%%%&***%%.......",
"........@@@$%%%%%%%&==*%%$$$$$$$................@@@@@$%%%%&&%&&%%$$$$$$$................@@@@@@%%%&%%$&&=%$$$$$$$................@@@@@@@&;$%%%%%*%$$$$$$$................@@@@@@@%&=$$%%&%%%$$$$$$................@@@@@@@%&*=%&$%%%%&$$$$$................@@@@@@@&%=>=&%%%%%%%&$$$................%%%%%%%$%*=&&==&&%%%$$$$................@@@$%&&&%%*&%&=*%$$$$$$$................@@@@@@@&;$@&&$&=%$$$$$$$................@@@@@@@%;-&%==%%&&&%&$$$................@@@@&%%$=--*&;*%&%%%%%%%........",
".........@@@@@@@@@$%%%%%$$$$$$$..................@@@@@@@@@@%%%%%$$$$$$$..................@@@@@@@$&@@$$%%$$$$$$$..................@@@@@@%$@@@$$$&%$$$$$$..................@@@@@@$%%@@$$&%$$$$$$$..................@@@@@@$%%%%%$$$$$$$$$$..................@@@@@@@&%&%%$$$$$$$$$$..................$$$@@@@&%%$%%%%&$$$$$$..................@@@$%%%&%%&$%%%$$$$$$$..................@@@@@@%%@@$&$$%%$$$$$$..................@@@@@@$%%%@&%%%%%%&$$$..................@@@@@@$%%%%&%%%$$$$$$$.........",
"..........@@@@@@@@@@$$$$$$$$$$....................@@@@@@@@@@$$$$$$$$$$....................@@@@@@@@@@$$$$$$$$$$....................@@@@@@@@@@$$$$$$$$$$....................@@@@@@@@@@$$$$$$$$$$....................@@@@@@@@@@$$$$$$$$$$....................@@@@@@@@@@$$$$$$$$$$....................@@@@@@@@@@$%%$$$$$$$....................@@@@@@@$&@$$%$$$$$$$....................@@@@@@$@@@$$$$$$$$$$....................@@@@@@$&$@$%%$$$$$$$....................@@@@@@@$&$$$$$$$$$$$..........",
"...........@@@@@@@@@$$$$$$$$$......................@@@@@@@@@$$$$$$$$$......................@@@@@@@@@$$$$$$$$$......................@@@@@@@@@$$$$$$$$$......................@@@@@@@@@$$$$$$$$$......................@@@@@@@@@$$$$$$$$$......................@@@@@@@@@$$$$$$$$$......................@@@@@@@@@$$$$$$$$$......................@@@@@@@@@$$$$$$$$$......................@@@@@@@@@$$$$$$$$$......................@@@@@@@@@$$$$$$$$$......................@@@@@@@@@$$$$$$$$$...........",
"............@@@@@@@@$$$$$$$$........................@@@@@@@@$$$$$$$$........................@@@@@@@@$$$$$$$$........................@@@@@@@@$$$$$$$$........................@@@@@@@@$$$$$$$$........................@@@@@@@@$$$$$$$$........................@@@@@@@@$$$$$$$$........................@@@@@@@@$$$$$$$$........................@@@@@@@@$$$$$$$$........................@@@@@@@@$$$$$$$$........................@@@@@@@@$$$$$$$$........................@@@@@@@@$$$$$$$$............",
".............@@@@@@@$$$$$$$..........................@@@@@@@$$$$$$$..........................@@@@@@@$$$$$$$..........................@@@@@@@$$$$$$$..........................@@@@@@@$$$$$$$..........................@@@@@@@$$$$$$$..........................@@@@@@@$$$$$$$..........................@@@@@@@$$$$$$$..........................@@@@@@@$$$$$$$..........................@@@@@@@$$$$$$$..........................@@@@@@@$$$$$$$..........................@@@@@@@$$$$$$$.............",
"..............@@@@@@$$$$$$............................@@@@@@$$$$$$............................@@@@@@$$$$$$............................@@@@@@$$$$$$............................@@@@@@$$$$$$............................@@@@@@$$$$$$............................@@@@@@$$$$$$............................@@@@@@$$$$$$............................@@@@@@$$$$$$............................@@@@@@$$$$$$............................@@@@@@$$$$$$............................@@@@@@$$$$$$..............",
"...............@@@@@$$$$$..............................@@@@@$$$$$..............................@@@@@$$$$$..............................@@@@@$$$$$..............................@@@@@$$$$$..............................@@@@@$$$$$..............................@@@@@$$$$$..............................@@@@@$$$$$..............................@@@@@$$$$$..............................@@@@@$$$$$..............................@@@@@$$$$$..............................@@@@@$$$$$...............",
"................@@@@$$$$................................@@@@$$$$................................@@@@$$$$................................@@@@$$$$................................@@@@$$$$................................@@@@$$$$................................@@@@$$$$................................@@@@$$$$................................@@@@$$$$................................@@@@$$$$................................@@@@$$$$................................@@@@$$$$................",
".................@@@$$$..................................@@@$$$..................................@@@$$$..................................@@@$$$..................................@@@$$$..................................@@@$$$..................................@@@$$$..................................@@@$$$..................................@@@$$$..................................@@@$$$..................................@@@$$$..................................@@@$$$.................",
"..................@@$$....................................@@$$....................................@@$$....................................@@$$....................................@@$$....................................@@$$....................................@@$$....................................@@$$....................................@@$$....................................@@$$....................................@@$$....................................@@$$..................",
"...................@@......................................@@......................................@@......................................@@......................................@@......................................@@......................................@@......................................@@......................................@@......................................@@......................................@@......................................@@..................."};
