<?xml version="1.0" encoding="UTF-8" standalone="no"?>
<!-- Created with Inkscape (http://www.inkscape.org/) -->
<svg
   xmlns:dc="http://purl.org/dc/elements/1.1/"
   xmlns:cc="http://web.resource.org/cc/"
   xmlns:rdf="http://www.w3.org/1999/02/22-rdf-syntax-ns#"
   xmlns:svg="http://www.w3.org/2000/svg"
   xmlns="http://www.w3.org/2000/svg"
   xmlns:xlink="http://www.w3.org/1999/xlink"
   xmlns:sodipodi="http://inkscape.sourceforge.net/DTD/sodipodi-0.dtd"
   xmlns:inkscape="http://www.inkscape.org/namespaces/inkscape"
   width="744.09448819"
   height="1052.3622047"
   id="svg2"
   sodipodi:version="0.32"
   inkscape:version="0.42"
   sodipodi:docbase="/home/portavales/olimpiada/figuras"
   sodipodi:docname="film.svg">
  <defs
     id="defs4">
    <linearGradient
       id="linearGradient5429">
      <stop
         style="stop-color:#000000;stop-opacity:0.54639173;"
         offset="0.0000000"
         id="stop5431" />
      <stop
         style="stop-color:#000000;stop-opacity:0;"
         offset="1"
         id="stop5433" />
    </linearGradient>
    <linearGradient
       id="linearGradient5415">
      <stop
         style="stop-color:#ffffff;stop-opacity:0.64948452;"
         offset="0.0000000"
         id="stop5417" />
      <stop
         id="stop5425"
         offset="0.50000000"
         style="stop-color:#ffffff;stop-opacity:0.71134019;" />
      <stop
         style="stop-color:#ffffff;stop-opacity:0.0000000;"
         offset="1.0000000"
         id="stop5419" />
    </linearGradient>
    <linearGradient
       id="linearGradient5400">
      <stop
         style="stop-color:#8bcaff;stop-opacity:0.0000000;"
         offset="0.0000000"
         id="stop5402" />
      <stop
         id="stop5406"
         offset="0.50000000"
         style="stop-color:#005b7e;stop-opacity:0.42352942;" />
      <stop
         style="stop-color:#51daff;stop-opacity:0.0000000;"
         offset="1.0000000"
         id="stop5404" />
    </linearGradient>
    <linearGradient
       id="linearGradient5363">
      <stop
         style="stop-color:#006a93;stop-opacity:1.0000000;"
         offset="0.0000000"
         id="stop5365" />
      <stop
         style="stop-color:#ffffff;stop-opacity:0.51546389;"
         offset="1.0000000"
         id="stop5367" />
    </linearGradient>
    <linearGradient
       id="linearGradient5251">
      <stop
         style="stop-color:#000000;stop-opacity:0.63917524;"
         offset="0.0000000"
         id="stop5253" />
      <stop
         style="stop-color:#cc7ac2;stop-opacity:0.0000000;"
         offset="1.0000000"
         id="stop5255" />
    </linearGradient>
    <linearGradient
       id="linearGradient3377">
      <stop
         style="stop-color:#002379;stop-opacity:1.0000000;"
         offset="0.0000000"
         id="stop3379" />
      <stop
         id="stop5375"
         offset="0.50000000"
         style="stop-color:#007860;stop-opacity:0.0000000;" />
      <stop
         style="stop-color:#00cd48;stop-opacity:1.0000000;"
         offset="1.0000000"
         id="stop3381" />
    </linearGradient>
    <linearGradient
       id="linearGradient3067">
      <stop
         id="stop3069"
         offset="0.0000000"
         style="stop-color:#d3d3d3;stop-opacity:1.0000000;" />
      <stop
         id="stop3071"
         offset="1.0000000"
         style="stop-color:#ffffff;stop-opacity:1.0000000;" />
    </linearGradient>
    <linearGradient
       id="linearGradient2184">
      <stop
         style="stop-color:#0f455a;stop-opacity:1.0000000;"
         offset="0.0000000"
         id="stop2186" />
      <stop
         style="stop-color:#8cff12;stop-opacity:0.0000000;"
         offset="1.0000000"
         id="stop2188" />
    </linearGradient>
    <linearGradient
       id="linearGradient2137">
      <stop
         style="stop-color:#494949;stop-opacity:1.0000000;"
         offset="0.0000000"
         id="stop2139" />
      <stop
         id="stop2145"
         offset="0.64705884"
         style="stop-color:#ffffff;stop-opacity:1.0000000;" />
      <stop
         style="stop-color:#a79bbc;stop-opacity:1.0000000;"
         offset="0.82352942"
         id="stop2151" />
      <stop
         style="stop-color:#515151;stop-opacity:1.0000000;"
         offset="1.0000000"
         id="stop2141" />
    </linearGradient>
    <linearGradient
       inkscape:collect="always"
       xlink:href="#linearGradient2137"
       id="linearGradient2143"
       x1="174.43265"
       y1="180.04641"
       x2="320.00508"
       y2="180.04641"
       gradientUnits="userSpaceOnUse" />
    <linearGradient
       inkscape:collect="always"
       xlink:href="#linearGradient2184"
       id="linearGradient2190"
       x1="183.00000"
       y1="185.17188"
       x2="251.81250"
       y2="185.17188"
       gradientUnits="userSpaceOnUse" />
    <linearGradient
       inkscape:collect="always"
       xlink:href="#linearGradient2137"
       id="linearGradient3130"
       gradientUnits="userSpaceOnUse"
       x1="174.43265"
       y1="180.04641"
       x2="320.00508"
       y2="180.04641"
       gradientTransform="translate(-4.076943,208.7120)" />
    <linearGradient
       inkscape:collect="always"
       xlink:href="#linearGradient3377"
       id="linearGradient3383"
       x1="218.78377"
       y1="324.76517"
       x2="223.01375"
       y2="384.75092"
       gradientUnits="userSpaceOnUse"
       gradientTransform="translate(-8.273209,53.53766)" />
    <linearGradient
       inkscape:collect="always"
       xlink:href="#linearGradient5251"
       id="linearGradient5265"
       x1="50.220016"
       y1="328.26764"
       x2="118.68381"
       y2="328.26764"
       gradientUnits="userSpaceOnUse"
       gradientTransform="translate(130.8192,14.26786)" />
    <linearGradient
       inkscape:collect="always"
       xlink:href="#linearGradient5251"
       id="linearGradient5351"
       gradientUnits="userSpaceOnUse"
       gradientTransform="translate(130.8192,14.26786)"
       x1="50.220016"
       y1="328.26764"
       x2="118.68381"
       y2="328.26764" />
    <linearGradient
       inkscape:collect="always"
       xlink:href="#linearGradient5363"
       id="linearGradient5369"
       x1="209.97581"
       y1="314.81076"
       x2="218.52029"
       y2="367.89554"
       gradientUnits="userSpaceOnUse"
       gradientTransform="translate(-4.076943,54.01949)" />
    <linearGradient
       inkscape:collect="always"
       xlink:href="#linearGradient5363"
       id="linearGradient5373"
       gradientUnits="userSpaceOnUse"
       x1="209.97581"
       y1="314.81076"
       x2="218.52029"
       y2="367.89554"
       gradientTransform="translate(61.92306,44.01949)" />
    <linearGradient
       inkscape:collect="always"
       xlink:href="#linearGradient5400"
       id="linearGradient5398"
       x1="249.15675"
       y1="430.36246"
       x2="249.15675"
       y2="380.02139"
       gradientUnits="userSpaceOnUse"
       gradientTransform="translate(-4.076943,54.01949)" />
    <linearGradient
       inkscape:collect="always"
       xlink:href="#linearGradient2137"
       id="linearGradient5410"
       gradientUnits="userSpaceOnUse"
       x1="174.43265"
       y1="180.04641"
       x2="320.00508"
       y2="180.04641"
       gradientTransform="translate(-3.500000,203.5000)" />
    <linearGradient
       inkscape:collect="always"
       xlink:href="#linearGradient5415"
       id="linearGradient5421"
       x1="236.35272"
       y1="349.30869"
       x2="247.60609"
       y2="390.02173"
       gradientUnits="userSpaceOnUse"
       gradientTransform="translate(0.000000,5.500000)" />
    <linearGradient
       inkscape:collect="always"
       xlink:href="#linearGradient5429"
       id="linearGradient5435"
       x1="243.21887"
       y1="429.03455"
       x2="235.51616"
       y2="395.71112"
       gradientUnits="userSpaceOnUse" />
  </defs>
  <sodipodi:namedview
     id="base"
     pagecolor="#ffffff"
     bordercolor="#666666"
     borderopacity="1.0"
     inkscape:pageopacity="0.0"
     inkscape:pageshadow="2"
     inkscape:zoom="1.3833896"
     inkscape:cx="379.57652"
     inkscape:cy="522.40511"
     inkscape:document-units="px"
     inkscape:current-layer="layer1"
     inkscape:window-width="1020"
     inkscape:window-height="716"
     inkscape:window-x="0"
     inkscape:window-y="0" />
  <metadata
     id="metadata7">
    <rdf:RDF>
      <cc:Work
         rdf:about="">
        <dc:format>image/svg+xml</dc:format>
        <dc:type
           rdf:resource="http://purl.org/dc/dcmitype/StillImage" />
      </cc:Work>
    </rdf:RDF>
  </metadata>
  <g
     inkscape:label="Layer 1"
     inkscape:groupmode="layer"
     id="layer1">
    <rect
       style="opacity:1.0000000;color:#000000;fill:#ffffff;fill-opacity:1.0000000;fill-rule:nonzero;stroke:none;stroke-width:0.10000000;stroke-linecap:round;stroke-linejoin:round;marker:none;marker-start:none;marker-mid:none;marker-end:none;stroke-miterlimit:4.0000000;stroke-dasharray:none;stroke-dashoffset:0.0000000;stroke-opacity:1.0000000;visibility:visible;display:inline;overflow:visible"
       id="rect5437"
       width="180.40472"
       height="178.36624"
       x="154.92383"
       y="322.58945"
       inkscape:export-filename="/home/portavales/olimpiada/figuras/film_small.png"
       inkscape:export-xdpi="99.775658"
       inkscape:export-ydpi="99.775658" />
    <rect
       y="349.92218"
       x="242.99312"
       height="70.900925"
       width="65.083412"
       id="rect5371"
       style="opacity:1.0000000;color:#000000;fill:url(#linearGradient5373);fill-opacity:1.0000000;fill-rule:nonzero;stroke:none;stroke-width:0.10000000;stroke-linecap:round;stroke-linejoin:round;marker:none;marker-start:none;marker-mid:none;marker-end:none;stroke-miterlimit:4.0000000;stroke-dasharray:none;stroke-dashoffset:0.0000000;stroke-opacity:1.0000000;visibility:visible;display:inline;overflow:visible" />
    <rect
       style="opacity:1.0000000;color:#000000;fill:url(#linearGradient5369);fill-opacity:1.0000000;fill-rule:nonzero;stroke:none;stroke-width:0.10000000;stroke-linecap:round;stroke-linejoin:round;marker:none;marker-start:none;marker-mid:none;marker-end:none;stroke-miterlimit:4.0000000;stroke-dasharray:none;stroke-dashoffset:0.0000000;stroke-opacity:1.0000000;visibility:visible;display:inline;overflow:visible"
       id="rect5353"
       width="65.083412"
       height="70.900925"
       x="176.99310"
       y="359.92218" />
    <text
       xml:space="preserve"
       style="font-size:11.999914px;font-style:normal;font-weight:normal;line-height:125.00000%;fill:url(#linearGradient3383);fill-opacity:1.0000000;stroke:none;stroke-width:1.0000000px;stroke-linecap:butt;stroke-linejoin:miter;stroke-opacity:1.0000000;font-family:Bitstream Vera Sans"
       x="144.65834"
       y="376.40005"
       id="text3352"
       sodipodi:linespacing="125.00000%"
       transform="matrix(0.996960,-7.791000e-2,7.791000e-2,0.996960,0.000000,0.000000)"><tspan
         sodipodi:role="line"
         id="tspan3354"
         x="144.65834"
         y="376.40005"
         style="font-size:6.9999485px;font-style:normal;font-variant:normal;font-weight:normal;font-stretch:normal;text-align:start;line-height:125.00000%;writing-mode:lr-tb;text-anchor:start;fill:url(#linearGradient3383);fill-opacity:1.0000000;font-family:Bitstream Vera Sans">0100101111010010101110010110001</tspan><tspan
         sodipodi:role="line"
         x="144.65834"
         y="385.14999"
         style="font-size:6.9999485px;font-style:normal;font-variant:normal;font-weight:normal;font-stretch:normal;text-align:start;line-height:125.00000%;writing-mode:lr-tb;text-anchor:start;fill:url(#linearGradient3383);fill-opacity:1.0000000;font-family:Bitstream Vera Sans"
         id="tspan3356">1011001011010100101001010111111</tspan><tspan
         sodipodi:role="line"
         x="144.65834"
         y="393.89993"
         style="font-size:6.9999485px;font-style:normal;font-variant:normal;font-weight:normal;font-stretch:normal;text-align:start;line-height:125.00000%;writing-mode:lr-tb;text-anchor:start;fill:url(#linearGradient3383);fill-opacity:1.0000000;font-family:Bitstream Vera Sans"
         id="tspan3358">000011010101000111010110100010</tspan><tspan
         sodipodi:role="line"
         x="144.65834"
         y="402.64986"
         style="font-size:6.9999485px;font-style:normal;font-variant:normal;font-weight:normal;font-stretch:normal;text-align:start;line-height:125.00000%;writing-mode:lr-tb;text-anchor:start;fill:url(#linearGradient3383);fill-opacity:1.0000000;font-family:Bitstream Vera Sans"
         id="tspan3360">010101010100111010101010101010</tspan><tspan
         sodipodi:role="line"
         x="144.65834"
         y="411.39980"
         style="font-size:6.9999485px;font-style:normal;font-variant:normal;font-weight:normal;font-stretch:normal;text-align:start;line-height:125.00000%;writing-mode:lr-tb;text-anchor:start;fill:url(#linearGradient3383);fill-opacity:1.0000000;font-family:Bitstream Vera Sans"
         id="tspan3367">010010001001010101010010111101</tspan><tspan
         sodipodi:role="line"
         x="144.65834"
         y="420.14973"
         style="font-size:6.9999485px;font-style:normal;font-variant:normal;font-weight:normal;font-stretch:normal;text-align:start;line-height:125.00000%;writing-mode:lr-tb;text-anchor:start;fill:url(#linearGradient3383);fill-opacity:1.0000000;font-family:Bitstream Vera Sans"
         id="tspan3369">000101010111101010100010101011</tspan><tspan
         sodipodi:role="line"
         x="144.65834"
         y="428.89967"
         style="font-size:6.9999485px;font-style:normal;font-variant:normal;font-weight:normal;font-stretch:normal;text-align:start;line-height:125.00000%;writing-mode:lr-tb;text-anchor:start;fill:url(#linearGradient3383);fill-opacity:1.0000000;font-family:Bitstream Vera Sans"
         id="tspan3371">010110101010001010101010101000</tspan><tspan
         sodipodi:role="line"
         x="144.65834"
         y="437.64960"
         style="font-size:6.9999485px;font-style:normal;font-variant:normal;font-weight:normal;font-stretch:normal;text-align:start;line-height:125.00000%;writing-mode:lr-tb;text-anchor:start;fill:url(#linearGradient3383);fill-opacity:1.0000000;font-family:Bitstream Vera Sans"
         id="tspan3373">010001011010101010101010001010</tspan><tspan
         sodipodi:role="line"
         x="144.65834"
         y="446.39954"
         style="font-size:6.9999485px;font-style:normal;font-variant:normal;font-weight:normal;font-stretch:normal;text-align:start;line-height:125.00000%;writing-mode:lr-tb;text-anchor:start;fill:url(#linearGradient3383);fill-opacity:1.0000000;font-family:Bitstream Vera Sans"
         id="tspan3375"></tspan></text>
    <path
       style="opacity:0.98802394;color:#000000;fill:url(#linearGradient2143);fill-opacity:1.0;fill-rule:nonzero;stroke:#000000;stroke-width:1.0000000;stroke-linecap:round;stroke-linejoin:round;marker:none;marker-start:none;marker-mid:none;marker-end:none;stroke-miterlimit:4.0000000;stroke-dashoffset:0.0000000;stroke-opacity:1.0000000;visibility:visible;display:inline;overflow:visible"
       d="M 174.93265,147.75897 C 223.12346,147.75897 271.31427,127.75897 319.50508,127.75897 C 319.50508,155.95060 319.50508,184.14222 319.50508,212.33385 C 271.31427,212.33385 223.12346,232.33385 174.93265,232.33385 C 174.93265,204.14222 174.93265,175.95060 174.93265,147.75897 z "
       id="path2038"
       sodipodi:nodetypes="ccccc" />
    <path
       style="opacity:0.98802394;color:#000000;fill:#ffffff;fill-opacity:1.0000000;fill-rule:nonzero;stroke:#000000;stroke-width:1.0000000;stroke-linecap:round;stroke-linejoin:round;marker:none;marker-start:none;marker-mid:none;marker-end:none;stroke-miterlimit:4.0000000;stroke-dashoffset:0.0000000;stroke-opacity:1.0000000;visibility:visible;display:inline;overflow:visible"
       d="M 311.06250,143.12500 C 291.04064,144.02970 271.02136,147.77443 251.00000,151.87500 L 251.00000,206.46875 C 271.02141,202.36820 291.04070,198.62346 311.06250,197.71875 L 311.06250,143.12500 z M 243.06250,153.40625 C 223.04185,157.50494 203.02158,161.49955 183.00000,162.37500 L 183.00000,216.96875 C 203.02148,216.09323 223.04180,212.09868 243.06250,208.00000 L 243.06250,153.40625 z "
       id="rect1306"
       sodipodi:nodetypes="cccccccccc" />
    <g
       id="g2147"
       style="fill:#ffffff;fill-opacity:1.0000000">
      <path
         id="path2061"
         d="M 319.34375 132.25000 L 319.34375 138.25000 C 319.39574 138.24995 319.44801 138.25000 319.50000 138.25000 C 319.50000 135.58393 319.50000 134.91607 319.50000 132.25000 C 319.44801 132.25000 319.39574 132.24995 319.34375 132.25000 z M 314.25000 132.50000 C 312.61359 132.54756 310.98014 132.66124 309.34375 132.75000 L 309.34375 138.75000 C 310.98014 138.66124 312.61359 138.54756 314.25000 138.50000 L 314.25000 132.50000 z M 304.25000 133.00000 C 302.61564 133.12807 300.97810 133.21219 299.34375 133.37500 L 299.34375 139.37500 C 300.97810 139.21219 302.61564 139.12807 304.25000 139.00000 L 304.25000 133.00000 z M 294.25000 134.03125 C 292.61735 134.22662 290.97638 134.40131 289.34375 134.62500 L 289.34375 140.62500 C 290.97638 140.40131 292.61735 140.22662 294.25000 140.03125 L 294.25000 134.03125 z M 284.25000 135.25000 C 282.61317 135.50045 280.98057 135.82122 279.34375 136.09375 L 279.34375 142.09375 C 280.98057 141.82122 282.61317 141.50045 284.25000 141.25000 L 284.25000 135.25000 z M 274.25000 136.96875 C 272.61338 137.26084 270.98036 137.53596 269.34375 137.84375 L 269.34375 143.84375 C 270.98036 143.53596 272.61338 143.26084 274.25000 142.96875 L 274.25000 136.96875 z M 264.25000 138.78125 C 262.61403 139.10190 260.97972 139.45130 259.34375 139.78125 L 259.34375 145.78125 C 260.97972 145.45130 262.61403 145.10190 264.25000 144.78125 L 264.25000 138.78125 z M 254.25000 140.81250 C 252.61404 141.14880 250.97971 141.47328 249.34375 141.81250 L 249.34375 147.81250 C 250.97971 147.47328 252.61404 147.14880 254.25000 146.81250 L 254.25000 140.81250 z M 244.25000 142.84375 C 242.61404 143.18269 240.97971 143.50827 239.34375 143.84375 L 239.34375 149.84375 C 240.97971 149.50827 242.61404 149.18269 244.25000 148.84375 L 244.25000 142.84375 z M 234.25000 144.90625 C 232.61403 145.23482 230.97972 145.58752 229.34375 145.90625 L 229.34375 151.90625 C 230.97972 151.58752 232.61403 151.23482 234.25000 150.90625 L 234.25000 144.90625 z M 224.25000 146.81250 C 222.61517 147.11748 220.97858 147.36747 219.34375 147.65625 L 219.34375 153.65625 C 220.97858 153.36747 222.61517 153.11748 224.25000 152.81250 L 224.25000 146.81250 z M 214.25000 148.56250 C 212.61454 148.83123 210.97922 149.09761 209.34375 149.34375 L 209.34375 155.34375 C 210.97922 155.09761 212.61454 154.83123 214.25000 154.56250 L 214.25000 148.56250 z M 204.25000 149.96875 C 202.61609 150.18796 200.97767 150.40344 199.34375 150.59375 L 199.34375 156.59375 C 200.97767 156.40344 202.61609 156.18796 204.25000 155.96875 L 204.25000 149.96875 z M 194.25000 151.21875 C 192.61436 151.37594 190.97941 151.44064 189.34375 151.56250 L 189.34375 157.56250 C 190.97941 157.44064 192.61436 157.37594 194.25000 157.21875 L 194.25000 151.21875 z M 184.25000 151.81250 C 182.61411 151.89437 180.97966 151.99110 179.34375 152.03125 L 179.34375 158.03125 C 180.97966 157.99110 182.61411 157.89437 184.25000 157.81250 L 184.25000 151.81250 z "
         style="opacity:0.98802394;color:#000000;fill:#ffffff;fill-opacity:1.0000000;fill-rule:nonzero;stroke:#000000;stroke-width:1.0000000;stroke-linecap:round;stroke-linejoin:round;marker:none;marker-start:none;marker-mid:none;marker-end:none;stroke-miterlimit:4.0000000;stroke-dashoffset:0.0000000;stroke-opacity:1.0000000;visibility:visible;display:inline;overflow:visible" />
      <path
         style="opacity:0.98802394;color:#000000;fill:#ffffff;fill-opacity:1.0000000;fill-rule:nonzero;stroke:#000000;stroke-width:1.0000000;stroke-linecap:round;stroke-linejoin:round;marker:none;marker-start:none;marker-mid:none;marker-end:none;stroke-miterlimit:4.0000000;stroke-dashoffset:0.0000000;stroke-opacity:1.0000000;visibility:visible;display:inline;overflow:visible"
         d="M 319.34375,202.25000 L 319.34375,208.25000 C 319.39574,208.24995 319.44801,208.25000 319.50000,208.25000 C 319.50000,205.58393 319.50000,204.91607 319.50000,202.25000 C 319.44801,202.25000 319.39574,202.24995 319.34375,202.25000 z M 314.25000,202.50000 C 312.61359,202.54756 310.98014,202.66124 309.34375,202.75000 L 309.34375,208.75000 C 310.98014,208.66124 312.61359,208.54756 314.25000,208.50000 L 314.25000,202.50000 z M 304.25000,203.00000 C 302.61564,203.12807 300.97810,203.21219 299.34375,203.37500 L 299.34375,209.37500 C 300.97810,209.21219 302.61564,209.12807 304.25000,209.00000 L 304.25000,203.00000 z M 294.25000,204.03125 C 292.61735,204.22662 290.97638,204.40131 289.34375,204.62500 L 289.34375,210.62500 C 290.97638,210.40131 292.61735,210.22662 294.25000,210.03125 L 294.25000,204.03125 z M 284.25000,205.25000 C 282.61317,205.50045 280.98057,205.82122 279.34375,206.09375 L 279.34375,212.09375 C 280.98057,211.82122 282.61317,211.50045 284.25000,211.25000 L 284.25000,205.25000 z M 274.25000,206.96875 C 272.61338,207.26084 270.98036,207.53596 269.34375,207.84375 L 269.34375,213.84375 C 270.98036,213.53596 272.61338,213.26084 274.25000,212.96875 L 274.25000,206.96875 z M 264.25000,208.78125 C 262.61403,209.10190 260.97972,209.45130 259.34375,209.78125 L 259.34375,215.78125 C 260.97972,215.45130 262.61403,215.10190 264.25000,214.78125 L 264.25000,208.78125 z M 254.25000,210.81250 C 252.61404,211.14880 250.97971,211.47328 249.34375,211.81250 L 249.34375,217.81250 C 250.97971,217.47328 252.61404,217.14880 254.25000,216.81250 L 254.25000,210.81250 z M 244.25000,212.84375 C 242.61404,213.18269 240.97971,213.50827 239.34375,213.84375 L 239.34375,219.84375 C 240.97971,219.50827 242.61404,219.18269 244.25000,218.84375 L 244.25000,212.84375 z M 234.25000,214.90625 C 232.61403,215.23482 230.97972,215.58752 229.34375,215.90625 L 229.34375,221.90625 C 230.97972,221.58752 232.61403,221.23482 234.25000,220.90625 L 234.25000,214.90625 z M 224.25000,216.81250 C 222.61517,217.11748 220.97858,217.36747 219.34375,217.65625 L 219.34375,223.65625 C 220.97858,223.36747 222.61517,223.11748 224.25000,222.81250 L 224.25000,216.81250 z M 214.25000,218.56250 C 212.61454,218.83123 210.97922,219.09761 209.34375,219.34375 L 209.34375,225.34375 C 210.97922,225.09761 212.61454,224.83123 214.25000,224.56250 L 214.25000,218.56250 z M 204.25000,219.96875 C 202.61609,220.18796 200.97767,220.40344 199.34375,220.59375 L 199.34375,226.59375 C 200.97767,226.40344 202.61609,226.18796 204.25000,225.96875 L 204.25000,219.96875 z M 194.25000,221.21875 C 192.61436,221.37594 190.97941,221.44064 189.34375,221.56250 L 189.34375,227.56250 C 190.97941,227.44064 192.61436,227.37594 194.25000,227.21875 L 194.25000,221.21875 z M 184.25000,221.81250 C 182.61411,221.89437 180.97966,221.99110 179.34375,222.03125 L 179.34375,228.03125 C 180.97966,227.99110 182.61411,227.89437 184.25000,227.81250 L 184.25000,221.81250 z "
         id="path2103" />
    </g>
    <path
       style="font-size:8.2225389px;font-style:normal;font-weight:normal;fill:url(#linearGradient2190);fill-opacity:1.0;stroke:none;stroke-width:1.0000000px;stroke-linecap:butt;stroke-linejoin:miter;stroke-opacity:1.0000000;font-family:Bitstream Vera Sans"
       d="M 242.90625 153.43750 C 242.64533 153.49091 242.38592 153.54039 242.12500 153.59375 L 242.53125 156.09375 L 241.25000 156.31250 L 241.34375 157.00000 L 243.06250 156.68750 L 243.06250 154.34375 L 242.90625 153.43750 z M 239.25000 154.12500 C 238.97903 154.18013 238.70847 154.22623 238.43750 154.28125 C 238.45079 154.35013 238.48781 154.36509 238.50000 154.43750 C 238.63638 155.24782 238.64010 155.87093 238.50000 156.31250 C 238.36209 156.75099 238.07065 157.02399 237.65625 157.09375 C 237.24449 157.16306 236.90149 156.99375 236.62500 156.62500 C 236.35070 156.25317 236.16763 155.65407 236.03125 154.84375 C 236.02441 154.80310 236.03740 154.78971 236.03125 154.75000 C 235.76028 154.80459 235.48972 154.85184 235.21875 154.90625 C 235.22470 154.94488 235.21214 154.96073 235.21875 155.00000 C 235.38624 155.99509 235.68819 156.72089 236.12500 157.18750 C 236.56401 157.65103 237.11873 157.83026 237.78125 157.71875 C 238.44376 157.60724 238.89580 157.26876 239.15625 156.68750 C 239.41889 156.10316 239.47999 155.30759 239.31250 154.31250 C 239.29852 154.22943 239.26586 154.20437 239.25000 154.12500 z M 232.62500 155.37500 C 232.36408 155.42676 232.10467 155.47971 231.84375 155.53125 L 232.21875 157.84375 L 230.90625 158.06250 L 231.03125 158.71875 L 234.43750 158.15625 L 234.31250 157.50000 L 233.00000 157.71875 L 232.62500 155.37500 z M 227.46875 156.34375 C 227.20783 156.39381 226.94842 156.45024 226.68750 156.50000 L 227.06250 158.71875 L 225.75000 158.93750 L 225.87500 159.59375 L 229.28125 159.03125 L 229.15625 158.34375 L 227.84375 158.56250 L 227.46875 156.34375 z M 222.34375 157.34375 C 222.07468 157.39305 221.80032 157.41987 221.53125 157.46875 L 221.90625 159.56250 L 220.59375 159.78125 L 220.68750 160.46875 L 224.09375 159.90625 L 224.00000 159.21875 L 222.68750 159.43750 L 222.34375 157.34375 z M 218.62500 158.03125 C 218.36408 158.07706 218.10467 158.14215 217.84375 158.18750 C 217.92442 158.82926 217.96283 159.40591 217.84375 159.78125 C 217.70584 160.21974 217.44564 160.49275 217.03125 160.56250 C 216.61949 160.63181 216.27649 160.46249 216.00000 160.09375 C 215.76945 159.78123 215.60187 159.24729 215.46875 158.62500 C 215.20783 158.66888 214.94842 158.73789 214.68750 158.78125 C 214.86402 159.57046 215.09402 160.25596 215.46875 160.65625 C 215.90776 161.11978 216.46248 161.29901 217.12500 161.18750 C 217.78751 161.07599 218.23955 160.73751 218.50000 160.15625 C 218.73489 159.63366 218.73414 158.88237 218.62500 158.03125 z M 212.03125 159.25000 C 211.77126 159.29138 211.50999 159.30294 211.25000 159.34375 L 211.56250 161.31250 L 210.25000 161.53125 L 210.37500 162.21875 L 213.78125 161.62500 L 213.65625 160.96875 L 212.34375 161.18750 L 212.03125 159.25000 z M 208.31250 159.75000 C 208.05108 159.78876 207.79267 159.83687 207.53125 159.87500 C 207.62323 160.55278 207.65501 161.14119 207.53125 161.53125 C 207.39334 161.96974 207.10190 162.21150 206.68750 162.28125 C 206.27574 162.35056 205.93273 162.21249 205.65625 161.84375 C 205.40638 161.50504 205.22918 160.92132 205.09375 160.21875 C 204.82353 160.25602 204.55147 160.27597 204.28125 160.31250 C 204.45251 161.24508 204.73761 161.95907 205.15625 162.40625 C 205.59526 162.86978 206.14999 163.04902 206.81250 162.93750 C 207.47501 162.82599 207.92705 162.45627 208.18750 161.87500 C 208.42570 161.34504 208.42809 160.61781 208.31250 159.75000 z M 201.65625 160.68750 C 201.38603 160.72153 201.11397 160.74802 200.84375 160.78125 L 201.25000 163.06250 L 199.93750 163.28125 L 200.03125 163.93750 L 203.43750 163.37500 L 203.34375 162.68750 L 202.03125 162.90625 L 201.65625 160.68750 z M 197.96875 161.18750 C 197.68790 161.21895 197.40585 161.21949 197.12500 161.25000 C 197.13836 161.31918 197.17526 161.33351 197.18750 161.40625 C 197.32388 162.21657 197.32759 162.83967 197.18750 163.28125 C 197.04959 163.71974 196.78939 163.96150 196.37500 164.03125 C 195.96324 164.10056 195.62024 163.96249 195.34375 163.59375 C 195.06945 163.22192 194.85514 162.62282 194.71875 161.81250 C 194.69138 161.64991 194.73513 161.58511 194.71875 161.43750 C 194.45858 161.46319 194.19767 161.47517 193.93750 161.50000 C 193.95390 161.66972 193.87531 161.75364 193.90625 161.93750 C 194.07374 162.93259 194.37568 163.65839 194.81250 164.12500 C 195.25151 164.58853 195.80624 164.76777 196.46875 164.65625 C 197.13126 164.54474 197.61454 164.20625 197.87500 163.62500 C 198.13764 163.04066 198.16748 162.24509 198.00000 161.25000 C 197.99506 161.22063 197.97393 161.21641 197.96875 161.18750 z M 243.06250 161.25000 C 242.75939 161.43042 242.37689 161.52316 242.21875 161.87500 C 241.95830 162.45626 241.92583 163.25228 242.09375 164.25000 C 242.26124 165.24509 242.56318 165.97088 243.00000 166.43750 C 243.01743 166.45590 243.04472 166.45125 243.06250 166.46875 L 243.06250 164.59375 C 243.01706 164.41087 242.94214 164.33824 242.90625 164.12500 C 242.76942 163.31204 242.76834 162.68849 242.90625 162.25000 C 242.93371 162.16345 243.02460 162.16600 243.06250 162.09375 L 243.06250 161.25000 z M 192.62500 161.62500 C 192.35449 161.64928 192.08301 161.66419 191.81250 161.68750 C 191.87165 161.90461 191.98682 161.98607 192.03125 162.25000 C 192.16763 163.06032 192.17135 163.68342 192.03125 164.12500 C 191.89334 164.56349 191.63314 164.83650 191.21875 164.90625 C 190.80699 164.97556 190.46399 164.80625 190.18750 164.43750 C 189.91320 164.06567 189.69889 163.49783 189.56250 162.68750 C 189.50093 162.32167 189.56844 162.13375 189.56250 161.84375 C 189.31267 161.86272 189.06233 161.88815 188.81250 161.90625 C 188.81419 162.22638 188.68591 162.43171 188.75000 162.81250 C 188.91749 163.80759 189.21943 164.53339 189.65625 165.00000 C 190.09526 165.46353 190.65000 165.64275 191.31250 165.53125 C 191.97501 165.41974 192.42705 165.08125 192.68750 164.50000 C 192.95014 163.91566 193.01123 163.12008 192.84375 162.12500 C 192.80505 161.89508 192.67810 161.82655 192.62500 161.62500 z M 239.00000 161.71875 L 238.18750 161.87500 L 236.84375 162.40625 L 236.96875 163.12500 L 238.31250 162.59375 L 239.09375 167.09375 L 237.78125 167.31250 L 237.90625 168.00000 L 241.31250 167.43750 L 241.18750 166.75000 L 239.87500 166.96875 L 239.00000 161.71875 z M 187.28125 162.03125 C 187.02108 162.04820 186.76017 162.07779 186.50000 162.09375 C 186.62672 162.41621 186.79546 162.65247 186.87500 163.12500 C 187.01138 163.93532 187.01510 164.55843 186.87500 165.00000 C 186.73709 165.43849 186.44565 165.71150 186.03125 165.78125 C 185.61949 165.85056 185.27649 165.68125 185.00000 165.31250 C 184.72570 164.94067 184.54263 164.34158 184.40625 163.53125 C 184.31275 162.97573 184.37146 162.63067 184.40625 162.25000 C 184.15642 162.26273 183.90608 162.30073 183.65625 162.31250 C 183.60996 162.75043 183.49656 163.11009 183.59375 163.68750 C 183.76124 164.68259 184.06319 165.40838 184.50000 165.87500 C 184.93901 166.33853 185.49373 166.51775 186.15625 166.40625 C 186.81876 166.29474 187.27080 165.95626 187.53125 165.37500 C 187.79389 164.79066 187.85499 163.99508 187.68750 163.00000 C 187.61300 162.55736 187.40911 162.36875 187.28125 162.03125 z M 233.84375 162.59375 L 233.03125 162.75000 L 231.65625 163.25000 L 231.78125 164.00000 L 233.15625 163.46875 L 233.93750 167.96875 L 232.62500 168.18750 L 232.71875 168.87500 L 236.12500 168.28125 L 236.03125 167.62500 L 234.71875 167.84375 L 233.84375 162.59375 z M 228.65625 163.46875 L 227.87500 163.59375 L 226.50000 164.12500 L 226.62500 164.84375 L 228.00000 164.34375 L 228.75000 168.84375 L 227.46875 169.06250 L 227.56250 169.75000 L 230.96875 169.15625 L 230.84375 168.50000 L 229.56250 168.71875 L 228.65625 163.46875 z M 222.96875 164.31250 C 222.30624 164.42402 221.82514 164.79066 221.56250 165.37500 C 221.30205 165.95626 221.26957 166.75228 221.43750 167.75000 C 221.60499 168.74509 221.90693 169.47089 222.34375 169.93750 C 222.78276 170.40103 223.33749 170.58026 224.00000 170.46875 C 224.66251 170.35724 225.11454 169.98751 225.37500 169.40625 C 225.63764 168.82191 225.69873 168.05759 225.53125 167.06250 C 225.36332 166.06478 225.06401 165.30729 224.62500 164.84375 C 224.18818 164.37714 223.63126 164.20099 222.96875 164.31250 z M 223.06250 164.96875 C 223.47690 164.89901 223.81946 165.03443 224.09375 165.40625 C 224.37024 165.77500 224.58191 166.37454 224.71875 167.18750 C 224.85513 167.99782 224.85886 168.62092 224.71875 169.06250 C 224.58084 169.50099 224.28939 169.74275 223.87500 169.81250 C 223.46324 169.88181 223.12024 169.74374 222.84375 169.37500 C 222.56945 169.00317 222.38639 168.40407 222.25000 167.59375 C 222.11317 166.78079 222.11209 166.15725 222.25000 165.71875 C 222.39010 165.27718 222.65074 165.03806 223.06250 164.96875 z M 217.81250 165.18750 C 217.14999 165.29902 216.66890 165.66566 216.40625 166.25000 C 216.14580 166.83126 216.11331 167.59604 216.28125 168.59375 C 216.44874 169.58884 216.75068 170.31464 217.18750 170.78125 C 217.62651 171.24478 218.18125 171.42401 218.84375 171.31250 C 219.50626 171.20099 219.95830 170.86251 220.21875 170.28125 C 220.48139 169.69691 220.54248 168.90134 220.37500 167.90625 C 220.20707 166.90853 219.87651 166.18229 219.43750 165.71875 C 219.00068 165.25214 218.47500 165.07600 217.81250 165.18750 z M 217.90625 165.81250 C 218.32065 165.74276 218.66320 165.90943 218.93750 166.28125 C 219.21399 166.65000 219.42566 167.24955 219.56250 168.06250 C 219.69888 168.87282 219.70259 169.49592 219.56250 169.93750 C 219.42459 170.37599 219.13314 170.61775 218.71875 170.68750 C 218.30699 170.75681 217.96399 170.61874 217.68750 170.25000 C 217.41320 169.87817 217.19889 169.27907 217.06250 168.46875 C 216.92567 167.65579 216.95584 167.03225 217.09375 166.59375 C 217.23385 166.15218 217.49449 165.88182 217.90625 165.81250 z M 213.18750 166.09375 L 212.37500 166.21875 L 211.03125 166.75000 L 211.12500 167.46875 L 212.50000 166.93750 L 213.28125 171.43750 L 211.96875 171.65625 L 212.09375 172.34375 L 215.46875 171.78125 L 215.37500 171.09375 L 214.06250 171.31250 L 213.18750 166.09375 z M 207.46875 166.93750 C 206.80624 167.04902 206.35639 167.38441 206.09375 167.96875 C 205.83330 168.55001 205.76957 169.34602 205.93750 170.34375 C 206.10499 171.33884 206.40692 172.06464 206.84375 172.53125 C 207.28276 172.99478 207.83748 173.17402 208.50000 173.06250 C 209.16251 172.95099 209.64580 172.61252 209.90625 172.03125 C 210.16889 171.44691 210.19874 170.65134 210.03125 169.65625 C 209.86332 168.65853 209.56402 167.93229 209.12500 167.46875 C 208.68818 167.00214 208.13126 166.82600 207.46875 166.93750 z M 207.59375 167.56250 C 208.00815 167.49276 208.35070 167.65943 208.62500 168.03125 C 208.90149 168.40000 209.08192 168.96830 209.21875 169.78125 C 209.35513 170.59157 209.35885 171.21467 209.21875 171.65625 C 209.08084 172.09474 208.82065 172.36775 208.40625 172.43750 C 207.99449 172.50681 207.65150 172.33749 207.37500 171.96875 C 207.10070 171.59692 206.88638 171.02907 206.75000 170.21875 C 206.61317 169.40579 206.61210 168.78225 206.75000 168.34375 C 206.89010 167.90218 207.18198 167.63182 207.59375 167.56250 z M 202.84375 167.81250 L 202.06250 167.93750 L 200.68750 168.46875 L 200.81250 169.18750 L 202.18750 168.68750 L 202.93750 173.18750 L 201.62500 173.40625 L 201.75000 174.09375 L 205.15625 173.50000 L 205.03125 172.84375 L 203.75000 173.06250 L 202.84375 167.81250 z M 197.15625 168.65625 C 196.49374 168.76777 196.01264 169.13442 195.75000 169.71875 C 195.48955 170.30001 195.45707 171.09602 195.62500 172.09375 C 195.79249 173.08884 196.09443 173.81464 196.53125 174.28125 C 196.97026 174.74478 197.52499 174.92400 198.18750 174.81250 C 198.85001 174.70099 199.30204 174.33125 199.56250 173.75000 C 199.82514 173.16566 199.88623 172.40133 199.71875 171.40625 C 199.55082 170.40853 199.25151 169.65104 198.81250 169.18750 C 198.37568 168.72089 197.81876 168.54475 197.15625 168.65625 z M 197.25000 169.31250 C 197.66440 169.24276 198.00696 169.37818 198.28125 169.75000 C 198.55774 170.11875 198.76941 170.71830 198.90625 171.53125 C 199.04263 172.34157 199.04636 172.96467 198.90625 173.40625 C 198.76834 173.84474 198.47689 174.08650 198.06250 174.15625 C 197.65074 174.22556 197.30774 174.08749 197.03125 173.71875 C 196.75695 173.34692 196.57389 172.74782 196.43750 171.93750 C 196.30067 171.12454 196.29959 170.50100 196.43750 170.06250 C 196.57760 169.62093 196.83824 169.38180 197.25000 169.31250 z M 192.53125 169.56250 L 191.71875 169.68750 L 190.37500 170.21875 L 190.50000 170.93750 L 191.87500 170.40625 L 192.62500 174.93750 L 191.31250 175.15625 L 191.43750 175.81250 L 194.84375 175.25000 L 194.71875 174.56250 L 193.40625 174.78125 L 192.53125 169.56250 z M 186.81250 170.40625 C 186.14999 170.51777 185.70015 170.85317 185.43750 171.43750 C 185.17705 172.01876 185.11331 172.81478 185.28125 173.81250 C 185.44874 174.80759 185.78194 175.53338 186.21875 176.00000 C 186.65776 176.46353 187.18123 176.64275 187.84375 176.53125 C 188.50626 176.41974 188.98955 176.08126 189.25000 175.50000 C 189.51264 174.91566 189.54249 174.12008 189.37500 173.12500 C 189.20707 172.12728 188.90776 171.40103 188.46875 170.93750 C 188.03193 170.47089 187.47500 170.29475 186.81250 170.40625 z M 186.93750 171.03125 C 187.35190 170.96151 187.69445 171.12818 187.96875 171.50000 C 188.24524 171.86875 188.45691 172.43704 188.59375 173.25000 C 188.73013 174.06032 188.70260 174.71468 188.56250 175.15625 C 188.42459 175.59474 188.16439 175.83651 187.75000 175.90625 C 187.33824 175.97556 186.99524 175.83750 186.71875 175.46875 C 186.44445 175.09692 186.23014 174.49783 186.09375 173.68750 C 185.95692 172.87454 185.95584 172.25100 186.09375 171.81250 C 186.23385 171.37093 186.52574 171.10056 186.93750 171.03125 z M 183.00000 171.71875 L 183.00000 172.93750 C 183.15735 173.28473 183.31332 173.57287 183.40625 174.12500 C 183.54263 174.93532 183.54635 175.55843 183.40625 176.00000 C 183.33862 176.21503 183.13412 176.24864 183.00000 176.37500 L 183.00000 177.18750 C 183.44615 177.01964 183.85982 176.82732 184.06250 176.37500 C 184.32514 175.79066 184.38624 174.99508 184.21875 174.00000 C 184.05082 173.00228 183.75152 172.27603 183.31250 171.81250 C 183.23058 171.72499 183.08986 171.78592 183.00000 171.71875 z M 240.68750 171.87500 L 239.90625 172.00000 L 238.53125 172.53125 L 238.65625 173.25000 L 240.03125 172.71875 L 240.78125 177.25000 L 239.50000 177.46875 L 239.59375 178.12500 L 243.00000 177.56250 L 242.87500 176.87500 L 241.59375 177.09375 L 240.68750 171.87500 z M 235.53125 172.75000 L 234.75000 172.87500 L 233.37500 173.40625 L 233.50000 174.12500 L 234.87500 173.59375 L 235.62500 178.12500 L 234.31250 178.34375 L 234.43750 179.00000 L 237.84375 178.43750 L 237.71875 177.75000 L 236.40625 177.96875 L 235.53125 172.75000 z M 229.84375 173.59375 C 229.18124 173.70527 228.70014 174.04066 228.43750 174.62500 C 228.17705 175.20626 228.14457 176.00228 228.31250 177.00000 C 228.47999 177.99509 228.78193 178.72089 229.21875 179.18750 C 229.65776 179.65103 230.21249 179.83026 230.87500 179.71875 C 231.53751 179.60724 231.98955 179.26876 232.25000 178.68750 C 232.51264 178.10316 232.57373 177.30759 232.40625 176.31250 C 232.23832 175.31478 231.90775 174.58854 231.46875 174.12500 C 231.03193 173.65839 230.50626 173.48224 229.84375 173.59375 z M 229.93750 174.21875 C 230.35190 174.14901 230.69445 174.31567 230.96875 174.68750 C 231.24524 175.05625 231.45692 175.62454 231.59375 176.43750 C 231.73013 177.24782 231.73385 177.87093 231.59375 178.31250 C 231.45584 178.75099 231.16440 179.02400 230.75000 179.09375 C 230.33824 179.16306 229.99523 178.99374 229.71875 178.62500 C 229.44445 178.25317 229.23013 177.68532 229.09375 176.87500 C 228.95692 176.06204 228.98708 175.43850 229.12500 175.00000 C 229.26510 174.55843 229.52574 174.28806 229.93750 174.21875 z M 225.21875 174.46875 L 224.40625 174.62500 L 223.06250 175.12500 L 223.15625 175.87500 L 224.53125 175.34375 L 225.31250 179.84375 L 224.00000 180.06250 L 224.12500 180.75000 L 227.50000 180.15625 L 227.40625 179.50000 L 226.09375 179.71875 L 225.21875 174.46875 z M 220.06250 175.34375 L 219.25000 175.46875 L 217.87500 176.00000 L 218.00000 176.71875 L 219.37500 176.21875 L 220.12500 180.71875 L 218.84375 180.93750 L 218.93750 181.62500 L 222.34375 181.03125 L 222.25000 180.37500 L 220.93750 180.59375 L 220.06250 175.34375 z M 214.87500 176.21875 L 214.09375 176.34375 L 212.71875 176.87500 L 212.84375 177.59375 L 214.21875 177.06250 L 214.96875 181.59375 L 213.65625 181.81250 L 213.78125 182.46875 L 217.18750 181.90625 L 217.06250 181.21875 L 215.78125 181.43750 L 214.87500 176.21875 z M 209.18750 177.06250 C 208.52499 177.17402 208.04389 177.50942 207.78125 178.09375 C 207.52080 178.67501 207.48832 179.47102 207.65625 180.46875 C 207.82374 181.46384 208.12569 182.18964 208.56250 182.65625 C 209.00151 183.11978 209.55623 183.29902 210.21875 183.18750 C 210.88126 183.07599 211.33330 182.73752 211.59375 182.15625 C 211.85639 181.57191 211.91749 180.77634 211.75000 179.78125 C 211.58207 178.78353 211.28276 178.05729 210.84375 177.59375 C 210.40693 177.12714 209.85000 176.95100 209.18750 177.06250 z M 209.28125 177.68750 C 209.69565 177.61776 210.03820 177.78443 210.31250 178.15625 C 210.58899 178.52500 210.80067 179.12455 210.93750 179.93750 C 211.07388 180.74782 211.07760 181.37092 210.93750 181.81250 C 210.79959 182.25099 210.50815 182.49275 210.09375 182.56250 C 209.68199 182.63181 209.33899 182.49374 209.06250 182.12500 C 208.78820 181.75317 208.60514 181.15407 208.46875 180.34375 C 208.33192 179.53079 208.33084 178.90725 208.46875 178.46875 C 208.60885 178.02718 208.86950 177.75682 209.28125 177.68750 z M 204.56250 177.93750 L 203.75000 178.09375 L 202.40625 178.62500 L 202.53125 179.34375 L 203.90625 178.81250 L 204.65625 183.31250 L 203.34375 183.53125 L 203.46875 184.21875 L 206.87500 183.65625 L 206.75000 182.96875 L 205.43750 183.18750 L 204.56250 177.93750 z M 198.84375 178.81250 C 198.18124 178.92402 197.73139 179.25942 197.46875 179.84375 C 197.20830 180.42501 197.17582 181.22103 197.34375 182.21875 C 197.51124 183.21384 197.81318 183.93964 198.25000 184.40625 C 198.68901 184.86978 199.21249 185.04900 199.87500 184.93750 C 200.53751 184.82599 201.02081 184.48750 201.28125 183.90625 C 201.54389 183.32191 201.57373 182.52633 201.40625 181.53125 C 201.23832 180.53353 200.93900 179.80729 200.50000 179.34375 C 200.06318 178.87714 199.50626 178.70100 198.84375 178.81250 z M 198.96875 179.43750 C 199.38315 179.36776 199.72570 179.50318 200.00000 179.87500 C 200.27649 180.24375 200.48817 180.84330 200.62500 181.65625 C 200.76138 182.46657 200.73385 183.08967 200.59375 183.53125 C 200.45584 183.96974 200.19565 184.24275 199.78125 184.31250 C 199.36949 184.38181 199.02648 184.21250 198.75000 183.84375 C 198.47570 183.47192 198.26139 182.90407 198.12500 182.09375 C 197.98817 181.28079 197.98709 180.62600 198.12500 180.18750 C 198.26510 179.74593 198.55699 179.50680 198.96875 179.43750 z M 194.25000 179.68750 L 193.43750 179.81250 L 192.06250 180.34375 L 192.18750 181.06250 L 193.56250 180.56250 L 194.31250 185.06250 L 193.03125 185.28125 L 193.12500 185.96875 L 196.53125 185.37500 L 196.43750 184.71875 L 195.12500 184.93750 L 194.25000 179.68750 z M 188.53125 180.53125 C 187.86874 180.64277 187.41890 181.00942 187.15625 181.59375 C 186.89580 182.17501 186.83206 182.93978 187.00000 183.93750 C 187.16749 184.93259 187.46943 185.68963 187.90625 186.15625 C 188.34526 186.61978 188.89999 186.79900 189.56250 186.68750 C 190.22501 186.57599 190.67705 186.20626 190.93750 185.62500 C 191.20014 185.04066 191.26123 184.24508 191.09375 183.25000 C 190.92582 182.25228 190.62651 181.52603 190.18750 181.06250 C 189.75068 180.59589 189.19375 180.41975 188.53125 180.53125 z M 188.62500 181.18750 C 189.03940 181.11776 189.38195 181.25318 189.65625 181.62500 C 189.93274 181.99375 190.14441 182.59329 190.28125 183.40625 C 190.41763 184.21657 190.42134 184.83968 190.28125 185.28125 C 190.14334 185.71974 189.88314 185.96151 189.46875 186.03125 C 189.05699 186.10056 188.71399 185.96250 188.43750 185.59375 C 188.16320 185.22192 187.94889 184.62283 187.81250 183.81250 C 187.67567 182.99954 187.67459 182.37600 187.81250 181.93750 C 187.95260 181.49593 188.21324 181.25681 188.62500 181.18750 z M 183.90625 181.43750 L 183.12500 181.56250 L 183.00000 181.62500 L 183.00000 182.37500 L 183.25000 182.28125 L 184.00000 186.81250 L 183.00000 186.96875 L 183.00000 187.65625 L 186.21875 187.12500 L 186.09375 186.43750 L 184.78125 186.65625 L 183.90625 181.43750 z M 241.87500 182.00000 C 241.21249 182.11152 240.73140 182.44691 240.46875 183.03125 C 240.20830 183.61251 240.17583 184.40853 240.34375 185.40625 C 240.51124 186.40134 240.81318 187.12714 241.25000 187.59375 C 241.68901 188.05728 242.24374 188.23651 242.90625 188.12500 C 242.98334 188.11202 242.99085 188.01934 243.06250 188.00000 L 243.06250 187.25000 C 242.95652 187.31229 242.91683 187.47718 242.78125 187.50000 C 242.36949 187.56931 242.02649 187.40000 241.75000 187.03125 C 241.47570 186.65942 241.26139 186.06032 241.12500 185.25000 C 240.98817 184.43704 241.01834 183.81349 241.15625 183.37500 C 241.29635 182.93343 241.55699 182.69431 241.96875 182.62500 C 242.38315 182.55526 242.72571 182.69067 243.00000 183.06250 C 243.02894 183.10110 243.03509 183.20653 243.06250 183.25000 L 243.06250 182.37500 C 242.69968 182.14952 242.35755 181.91878 241.87500 182.00000 z M 236.68750 182.84375 C 236.02499 182.95527 235.57515 183.32191 235.31250 183.90625 C 235.05205 184.48751 235.01956 185.28353 235.18750 186.28125 C 235.35499 187.27634 235.65694 188.00214 236.09375 188.46875 C 236.53276 188.93228 237.05623 189.11151 237.71875 189.00000 C 238.38126 188.88849 238.86455 188.51876 239.12500 187.93750 C 239.38764 187.35316 239.41749 186.58884 239.25000 185.59375 C 239.08207 184.59603 238.78276 183.83853 238.34375 183.37500 C 237.90693 182.90839 237.35000 182.73224 236.68750 182.84375 z M 236.81250 183.50000 C 237.22690 183.43026 237.56945 183.56567 237.84375 183.93750 C 238.12024 184.30625 238.33191 184.90579 238.46875 185.71875 C 238.60513 186.52907 238.60885 187.15218 238.46875 187.59375 C 238.33084 188.03224 238.03939 188.27400 237.62500 188.34375 C 237.21324 188.41306 236.87024 188.27499 236.59375 187.90625 C 236.31945 187.53442 236.10514 186.93532 235.96875 186.12500 C 235.83192 185.31204 235.83084 184.68849 235.96875 184.25000 C 236.10885 183.80843 236.40074 183.56931 236.81250 183.50000 z M 232.09375 183.75000 L 231.28125 183.87500 L 229.90625 184.40625 L 230.03125 185.12500 L 231.40625 184.59375 L 232.18750 189.12500 L 230.87500 189.34375 L 230.96875 190.00000 L 234.37500 189.43750 L 234.28125 188.75000 L 232.96875 188.96875 L 232.09375 183.75000 z M 226.90625 184.62500 L 226.12500 184.75000 L 224.75000 185.28125 L 224.87500 186.00000 L 226.25000 185.46875 L 227.00000 189.96875 L 225.68750 190.18750 L 225.81250 190.87500 L 229.21875 190.31250 L 229.09375 189.62500 L 227.81250 189.84375 L 226.90625 184.62500 z M 221.21875 185.46875 C 220.55624 185.58027 220.07514 185.91566 219.81250 186.50000 C 219.55205 187.08126 219.51957 187.87729 219.68750 188.87500 C 219.85499 189.87009 220.15693 190.59589 220.59375 191.06250 C 221.03276 191.52603 221.58749 191.70526 222.25000 191.59375 C 222.91251 191.48224 223.36454 191.14376 223.62500 190.56250 C 223.88764 189.97816 223.94873 189.18259 223.78125 188.18750 C 223.61332 187.18978 223.31401 186.46354 222.87500 186.00000 C 222.43818 185.53339 221.88126 185.35725 221.21875 185.46875 z M 221.31250 186.09375 C 221.72690 186.02401 222.06946 186.19068 222.34375 186.56250 C 222.62024 186.93125 222.83191 187.49955 222.96875 188.31250 C 223.10513 189.12282 223.10886 189.74592 222.96875 190.18750 C 222.83084 190.62599 222.53939 190.89900 222.12500 190.96875 C 221.71324 191.03806 221.37024 190.86874 221.09375 190.50000 C 220.81945 190.12817 220.63639 189.56032 220.50000 188.75000 C 220.36317 187.93704 220.36209 187.31350 220.50000 186.87500 C 220.64010 186.43343 220.90074 186.16307 221.31250 186.09375 z M 216.06250 186.34375 C 215.39999 186.45527 214.91890 186.79066 214.65625 187.37500 C 214.39580 187.95626 214.36331 188.75229 214.53125 189.75000 C 214.69874 190.74509 215.00068 191.47089 215.43750 191.93750 C 215.87651 192.40103 216.43125 192.58026 217.09375 192.46875 C 217.75626 192.35724 218.20830 192.01877 218.46875 191.43750 C 218.73139 190.85316 218.76123 190.05759 218.59375 189.06250 C 218.42582 188.06478 218.12651 187.33854 217.68750 186.87500 C 217.25068 186.40839 216.72500 186.23225 216.06250 186.34375 z M 216.15625 186.96875 C 216.57065 186.89901 216.91320 187.03443 217.18750 187.40625 C 217.46399 187.77500 217.67566 188.37455 217.81250 189.18750 C 217.94888 189.99782 217.95259 190.62092 217.81250 191.06250 C 217.67459 191.50099 217.38314 191.77400 216.96875 191.84375 C 216.55699 191.91306 216.21399 191.74374 215.93750 191.37500 C 215.66320 191.00317 215.44889 190.40407 215.31250 189.59375 C 215.17567 188.78079 215.17459 188.15725 215.31250 187.71875 C 215.45260 187.27718 215.74449 187.03807 216.15625 186.96875 z M 211.43750 187.21875 L 210.62500 187.34375 L 209.28125 187.87500 L 209.37500 188.59375 L 210.75000 188.09375 L 211.53125 192.59375 L 210.21875 192.81250 L 210.31250 193.46875 L 213.71875 192.90625 L 213.62500 192.25000 L 212.31250 192.46875 L 211.43750 187.21875 z M 205.71875 188.06250 C 205.05624 188.17402 204.60639 188.54067 204.34375 189.12500 C 204.08330 189.70626 204.01957 190.47102 204.18750 191.46875 C 204.35499 192.46384 204.65692 193.22089 205.09375 193.68750 C 205.53276 194.15103 206.08748 194.29902 206.75000 194.18750 C 207.41251 194.07599 207.86455 193.73750 208.12500 193.15625 C 208.38764 192.57191 208.44874 191.77634 208.28125 190.78125 C 208.11332 189.78353 207.81402 189.05729 207.37500 188.59375 C 206.93818 188.12714 206.38126 187.95100 205.71875 188.06250 z M 205.84375 188.68750 C 206.25815 188.61776 206.60070 188.78443 206.87500 189.15625 C 207.15149 189.52500 207.33192 190.12455 207.46875 190.93750 C 207.60513 191.74782 207.60885 192.37092 207.46875 192.81250 C 207.33084 193.25099 207.07065 193.49275 206.65625 193.56250 C 206.24449 193.63181 205.90150 193.49374 205.62500 193.12500 C 205.35070 192.75317 205.13638 192.15407 205.00000 191.34375 C 204.86317 190.53079 204.86210 189.90725 205.00000 189.46875 C 205.14010 189.02718 205.43198 188.75680 205.84375 188.68750 z M 201.09375 188.96875 L 200.31250 189.09375 L 198.93750 189.62500 L 199.06250 190.34375 L 200.43750 189.81250 L 201.18750 194.31250 L 199.87500 194.56250 L 200.00000 195.21875 L 203.40625 194.65625 L 203.28125 193.96875 L 202.00000 194.18750 L 201.09375 188.96875 z M 195.40625 189.81250 C 194.74374 189.92402 194.26264 190.25942 194.00000 190.84375 C 193.73955 191.42501 193.70707 192.22103 193.87500 193.21875 C 194.04249 194.21384 194.34443 194.93963 194.78125 195.40625 C 195.22026 195.86978 195.77499 196.04900 196.43750 195.93750 C 197.10001 195.82599 197.55206 195.48751 197.81250 194.90625 C 198.07514 194.32191 198.13623 193.52633 197.96875 192.53125 C 197.80082 191.53353 197.50151 190.80729 197.06250 190.34375 C 196.62568 189.87714 196.06876 189.70100 195.40625 189.81250 z M 195.50000 190.43750 C 195.91440 190.36776 196.25695 190.53443 196.53125 190.90625 C 196.80774 191.27500 197.01941 191.84330 197.15625 192.65625 C 197.29263 193.46657 197.29635 194.08968 197.15625 194.53125 C 197.01834 194.96974 196.72690 195.24275 196.31250 195.31250 C 195.90074 195.38181 195.55773 195.21250 195.28125 194.84375 C 195.00695 194.47192 194.82389 193.90408 194.68750 193.09375 C 194.55067 192.28079 194.54959 191.65725 194.68750 191.21875 C 194.82760 190.77718 195.08824 190.50681 195.50000 190.43750 z M 190.78125 190.68750 L 189.96875 190.84375 L 188.62500 191.34375 L 188.75000 192.09375 L 190.12500 191.56250 L 190.87500 196.06250 L 189.56250 196.28125 L 189.68750 196.96875 L 193.09375 196.37500 L 192.96875 195.71875 L 191.65625 195.93750 L 190.78125 190.68750 z M 185.62500 191.56250 L 184.81250 191.68750 L 183.43750 192.21875 L 183.56250 192.93750 L 184.93750 192.43750 L 185.71875 196.93750 L 184.40625 197.15625 L 184.50000 197.81250 L 187.90625 197.25000 L 187.81250 196.59375 L 186.50000 196.81250 L 185.62500 191.56250 z M 243.06250 192.37500 L 241.93750 192.81250 L 242.06250 193.53125 L 243.06250 193.15625 L 243.06250 192.37500 z M 238.40625 193.00000 C 237.74374 193.11152 237.29390 193.44691 237.03125 194.03125 C 236.77080 194.61251 236.70706 195.40853 236.87500 196.40625 C 237.04249 197.40134 237.34443 198.12714 237.78125 198.59375 C 238.22026 199.05728 238.77499 199.23651 239.43750 199.12500 C 240.10001 199.01349 240.55205 198.67501 240.81250 198.09375 C 241.07514 197.50941 241.13623 196.71384 240.96875 195.71875 C 240.80082 194.72103 240.50151 193.99479 240.06250 193.53125 C 239.62568 193.06464 239.06875 192.88849 238.40625 193.00000 z M 251.00000 193.28125 L 251.00000 196.46875 C 251.03514 196.40829 251.12639 196.41039 251.15625 196.34375 C 251.41889 195.75941 251.44873 194.96384 251.28125 193.96875 C 251.22857 193.65576 251.07936 193.54167 251.00000 193.28125 z M 238.50000 193.62500 C 238.91440 193.55526 239.25695 193.69067 239.53125 194.06250 C 239.80774 194.43125 240.01941 195.03079 240.15625 195.84375 C 240.29263 196.65407 240.29634 197.27718 240.15625 197.71875 C 240.01834 198.15724 239.75814 198.43025 239.34375 198.50000 C 238.93199 198.56931 238.58899 198.39999 238.31250 198.03125 C 238.03820 197.65942 237.82389 197.09157 237.68750 196.28125 C 237.55067 195.46829 237.54959 194.84475 237.68750 194.40625 C 237.82760 193.96468 238.08824 193.69431 238.50000 193.62500 z M 233.78125 193.87500 L 233.00000 194.00000 L 231.62500 194.53125 L 231.75000 195.25000 L 233.12500 194.75000 L 233.87500 199.25000 L 232.56250 199.46875 L 232.68750 200.15625 L 236.09375 199.56250 L 235.96875 198.90625 L 234.65625 199.12500 L 233.78125 193.87500 z M 228.09375 194.71875 C 227.43124 194.83027 226.95014 195.19691 226.68750 195.78125 C 226.42705 196.36251 226.39457 197.15854 226.56250 198.15625 C 226.72999 199.15134 227.03192 199.87714 227.46875 200.34375 C 227.90776 200.80728 228.46248 200.98651 229.12500 200.87500 C 229.78751 200.76349 230.23955 200.39376 230.50000 199.81250 C 230.76264 199.22816 230.79249 198.46384 230.62500 197.46875 C 230.45707 196.47103 230.15777 195.71354 229.71875 195.25000 C 229.28193 194.78339 228.75626 194.60725 228.09375 194.71875 z M 228.18750 195.37500 C 228.60190 195.30526 228.94445 195.44068 229.21875 195.81250 C 229.49524 196.18125 229.70692 196.78080 229.84375 197.59375 C 229.98013 198.40407 229.98385 199.02717 229.84375 199.46875 C 229.70584 199.90724 229.41440 200.14900 229.00000 200.21875 C 228.58824 200.28806 228.24525 200.14999 227.96875 199.78125 C 227.69445 199.40942 227.48013 198.81032 227.34375 198.00000 C 227.20692 197.18704 227.23710 196.56350 227.37500 196.12500 C 227.51510 195.68343 227.77575 195.44432 228.18750 195.37500 z M 223.46875 195.62500 L 222.65625 195.75000 L 221.31250 196.28125 L 221.40625 197.00000 L 222.78125 196.46875 L 223.56250 201.00000 L 222.25000 201.21875 L 222.34375 201.87500 L 225.75000 201.31250 L 225.65625 200.62500 L 224.34375 200.84375 L 223.46875 195.62500 z M 218.31250 196.50000 L 217.50000 196.62500 L 216.12500 197.15625 L 216.25000 197.87500 L 217.62500 197.34375 L 218.37500 201.84375 L 217.09375 202.06250 L 217.18750 202.75000 L 220.59375 202.18750 L 220.50000 201.50000 L 219.18750 201.71875 L 218.31250 196.50000 z M 213.12500 197.34375 L 212.34375 197.50000 L 210.96875 198.00000 L 211.09375 198.75000 L 212.46875 198.21875 L 213.21875 202.71875 L 211.90625 202.93750 L 212.03125 203.62500 L 215.43750 203.03125 L 215.31250 202.37500 L 214.03125 202.59375 L 213.12500 197.34375 z M 243.06250 197.68750 L 242.90625 197.71875 L 243.00000 198.40625 L 243.06250 198.40625 L 243.06250 197.68750 z M 207.43750 198.21875 C 206.77499 198.33027 206.29389 198.66567 206.03125 199.25000 C 205.77080 199.83126 205.73832 200.62727 205.90625 201.62500 C 206.07374 202.62009 206.37569 203.34589 206.81250 203.81250 C 207.25151 204.27603 207.80623 204.45527 208.46875 204.34375 C 209.13126 204.23224 209.58330 203.89375 209.84375 203.31250 C 210.10639 202.72816 210.16749 201.93259 210.00000 200.93750 C 209.83207 199.93978 209.53276 199.21354 209.09375 198.75000 C 208.65693 198.28339 208.10000 198.10725 207.43750 198.21875 z M 207.53125 198.84375 C 207.94565 198.77401 208.28820 198.90943 208.56250 199.28125 C 208.83899 199.65000 209.05067 200.24955 209.18750 201.06250 C 209.32388 201.87282 209.32760 202.49592 209.18750 202.93750 C 209.04959 203.37599 208.75815 203.64900 208.34375 203.71875 C 207.93199 203.78806 207.58899 203.61874 207.31250 203.25000 C 207.03820 202.87817 206.85514 202.27907 206.71875 201.46875 C 206.58192 200.65579 206.58084 200.03225 206.71875 199.59375 C 206.85885 199.15218 207.11950 198.91305 207.53125 198.84375 z M 202.81250 199.09375 L 202.00000 199.21875 L 200.65625 199.75000 L 200.78125 200.46875 L 202.15625 199.96875 L 202.90625 204.46875 L 201.59375 204.68750 L 201.71875 205.34375 L 205.12500 204.78125 L 205.00000 204.12500 L 203.68750 204.34375 L 202.81250 199.09375 z M 197.09375 199.93750 C 196.43124 200.04902 195.98139 200.41567 195.71875 201.00000 C 195.45830 201.58126 195.39457 202.34603 195.56250 203.34375 C 195.72999 204.33884 196.03193 205.09588 196.46875 205.56250 C 196.90776 206.02603 197.46249 206.17400 198.12500 206.06250 C 198.78751 205.95099 199.27080 205.61251 199.53125 205.03125 C 199.79389 204.44691 199.82373 203.65133 199.65625 202.65625 C 199.48832 201.65853 199.18902 200.93228 198.75000 200.46875 C 198.31318 200.00214 197.75626 199.82600 197.09375 199.93750 z M 197.21875 200.56250 C 197.63315 200.49276 197.97570 200.65943 198.25000 201.03125 C 198.52649 201.40000 198.73817 201.99954 198.87500 202.81250 C 199.01138 203.62282 198.98385 204.24593 198.84375 204.68750 C 198.70584 205.12599 198.44565 205.36776 198.03125 205.43750 C 197.61949 205.50681 197.27648 205.36875 197.00000 205.00000 C 196.72570 204.62817 196.51138 204.02908 196.37500 203.21875 C 196.23817 202.40579 196.23710 201.78225 196.37500 201.34375 C 196.51510 200.90218 196.80698 200.63181 197.21875 200.56250 z M 192.50000 200.84375 L 191.68750 200.96875 L 190.31250 201.50000 L 190.43750 202.21875 L 191.81250 201.68750 L 192.56250 206.18750 L 191.28125 206.40625 L 191.37500 207.09375 L 194.78125 206.53125 L 194.68750 205.84375 L 193.37500 206.06250 L 192.50000 200.84375 z M 251.00000 201.59375 L 251.00000 206.40625 L 251.00000 206.46875 C 251.27118 206.41321 251.54132 206.36790 251.81250 206.31250 L 251.00000 201.59375 z M 186.78125 201.68750 C 186.11874 201.79902 185.63765 202.13441 185.37500 202.71875 C 185.11455 203.30001 185.08208 204.09603 185.25000 205.09375 C 185.41749 206.08884 185.71943 206.81463 186.15625 207.28125 C 186.59526 207.74478 187.14999 207.92401 187.81250 207.81250 C 188.47501 207.70099 188.92704 207.36251 189.18750 206.78125 C 189.45014 206.19691 189.51123 205.40133 189.34375 204.40625 C 189.17582 203.40853 188.87651 202.68228 188.43750 202.21875 C 188.00068 201.75214 187.44376 201.57600 186.78125 201.68750 z M 186.87500 202.31250 C 187.28940 202.24276 187.63196 202.40943 187.90625 202.78125 C 188.18274 203.15000 188.39441 203.71829 188.53125 204.53125 C 188.66763 205.34157 188.67134 205.96468 188.53125 206.40625 C 188.39334 206.84474 188.13314 207.11776 187.71875 207.18750 C 187.30699 207.25681 186.93274 207.08750 186.65625 206.71875 C 186.38195 206.34692 186.19889 205.77908 186.06250 204.96875 C 185.92567 204.15579 185.92459 203.53224 186.06250 203.09375 C 186.20260 202.65218 186.46324 202.38181 186.87500 202.31250 z M 240.65625 203.15625 L 239.84375 203.28125 L 238.50000 203.81250 L 238.62500 204.53125 L 240.00000 204.00000 L 240.75000 208.43750 C 241.01092 208.38425 241.27033 208.33457 241.53125 208.28125 L 240.65625 203.15625 z M 235.50000 204.00000 L 234.68750 204.15625 L 233.34375 204.65625 L 233.43750 205.40625 L 234.81250 204.87500 L 235.59375 209.37500 L 234.28125 209.59375 L 234.28125 209.65625 C 234.97975 209.51656 235.67650 209.39089 236.37500 209.25000 L 235.50000 204.00000 z M 229.78125 204.87500 C 229.11874 204.98652 228.66889 205.32191 228.40625 205.90625 C 228.14580 206.48751 228.08207 207.28354 228.25000 208.28125 C 228.41749 209.27634 228.71944 210.00214 229.15625 210.46875 C 229.23858 210.55568 229.37856 210.49579 229.46875 210.56250 C 229.86420 210.48552 230.26080 210.42132 230.65625 210.34375 C 230.27770 210.38344 229.94695 210.25226 229.68750 209.90625 C 229.41320 209.53442 229.19889 208.96657 229.06250 208.15625 C 228.92567 207.34329 228.92459 206.68850 229.06250 206.25000 C 229.20260 205.80843 229.49450 205.56932 229.90625 205.50000 C 230.32065 205.43026 230.66320 205.56568 230.93750 205.93750 C 231.21399 206.30625 231.39442 206.90580 231.53125 207.71875 C 231.66763 208.52907 231.67135 209.15217 231.53125 209.59375 C 231.40150 210.00629 231.15572 210.25760 230.78125 210.34375 C 231.20878 210.25983 231.63497 210.17830 232.06250 210.09375 C 232.09764 210.03329 232.18889 210.03539 232.21875 209.96875 C 232.48139 209.38441 232.51124 208.58884 232.34375 207.59375 C 232.17582 206.59603 231.87651 205.86979 231.43750 205.40625 C 231.00068 204.93964 230.44375 204.76350 229.78125 204.87500 z M 225.15625 205.75000 L 224.37500 205.87500 L 223.00000 206.40625 L 223.12500 207.12500 L 224.50000 206.62500 L 225.25000 211.12500 L 223.93750 211.34375 L 224.00000 211.62500 C 225.12603 211.41528 226.24897 211.18465 227.37500 210.96875 L 227.34375 210.78125 L 226.06250 211.00000 L 225.15625 205.75000 z M 219.46875 206.59375 C 218.80624 206.70527 218.32514 207.07191 218.06250 207.65625 C 217.80205 208.23751 217.76957 209.00229 217.93750 210.00000 C 218.10499 210.99509 218.40693 211.75214 218.84375 212.21875 C 219.03336 212.41895 219.33120 212.34457 219.56250 212.43750 C 220.14467 212.33410 220.73033 212.23049 221.31250 212.12500 C 221.48692 211.96563 221.76819 211.92587 221.87500 211.68750 C 222.13764 211.10316 222.19873 210.30759 222.03125 209.31250 C 221.86332 208.31478 221.56401 207.58854 221.12500 207.12500 C 220.68818 206.65839 220.13126 206.48225 219.46875 206.59375 z M 219.56250 207.25000 C 219.97690 207.18026 220.31946 207.31568 220.59375 207.68750 C 220.87024 208.05625 221.08191 208.65580 221.21875 209.46875 C 221.35513 210.27907 221.35886 210.90217 221.21875 211.34375 C 221.08084 211.78224 220.78939 212.02400 220.37500 212.09375 C 219.96324 212.16306 219.62024 212.02499 219.34375 211.65625 C 219.06945 211.28442 218.88639 210.68532 218.75000 209.87500 C 218.61317 209.06204 218.61209 208.43850 218.75000 208.00000 C 218.89010 207.55843 219.15074 207.31932 219.56250 207.25000 z M 214.84375 207.50000 L 214.03125 207.62500 L 212.68750 208.15625 L 212.81250 208.87500 L 214.18750 208.34375 L 214.93750 212.87500 L 213.62500 213.09375 L 213.71875 213.56250 C 214.84478 213.37817 215.96772 213.10002 217.09375 212.90625 L 217.03125 212.50000 L 215.71875 212.71875 L 214.84375 207.50000 z M 184.34375 207.59375 L 183.03125 207.81250 L 183.00000 207.62500 L 183.00000 208.50000 L 184.46875 208.25000 L 184.34375 207.59375 z M 209.68750 208.34375 L 208.87500 208.50000 L 207.50000 209.03125 L 207.62500 209.75000 L 209.00000 209.21875 L 209.78125 213.71875 L 208.46875 213.93750 L 208.53125 214.31250 C 209.66754 214.14325 210.80121 214.02429 211.93750 213.84375 L 211.87500 213.37500 L 210.56250 213.59375 L 209.68750 208.34375 z M 204.53125 209.21875 L 203.71875 209.37500 L 202.34375 209.87500 L 202.46875 210.62500 L 203.84375 210.09375 L 204.59375 214.59375 L 203.31250 214.81250 L 203.34375 215.03125 C 204.48005 214.88131 205.61371 214.72541 206.75000 214.56250 L 206.71875 214.25000 L 205.40625 214.46875 L 204.53125 209.21875 z M 198.81250 210.09375 C 198.14999 210.20527 197.70014 210.54067 197.43750 211.12500 C 197.17705 211.70626 197.11332 212.50228 197.28125 213.50000 C 197.44874 214.49509 197.75067 215.22088 198.18750 215.68750 C 198.22987 215.73224 198.29930 215.71062 198.34375 215.75000 C 198.80379 215.69782 199.25871 215.58588 199.71875 215.53125 C 199.32682 215.58258 198.98513 215.48026 198.71875 215.12500 C 198.44445 214.75317 198.23013 214.15408 198.09375 213.34375 C 197.95692 212.53079 197.95585 211.90725 198.09375 211.46875 C 198.23385 211.02718 198.49448 210.78806 198.90625 210.71875 C 199.32065 210.64901 199.66320 210.78443 199.93750 211.15625 C 200.21399 211.52500 200.42567 212.12454 200.56250 212.93750 C 200.69888 213.74782 200.70260 214.37093 200.56250 214.81250 C 200.43010 215.23348 200.16850 215.45015 199.78125 215.53125 C 200.17706 215.48416 200.57294 215.42385 200.96875 215.37500 C 201.02940 215.28485 201.17140 215.29318 201.21875 215.18750 C 201.48139 214.60316 201.54249 213.80758 201.37500 212.81250 C 201.20707 211.81478 200.90777 211.08853 200.46875 210.62500 C 200.03193 210.15839 199.47501 209.98225 198.81250 210.09375 z M 194.18750 210.96875 L 193.40625 211.09375 L 192.03125 211.62500 L 192.15625 212.34375 L 193.53125 211.81250 L 194.25000 216.09375 C 194.51017 216.06858 194.77108 216.05728 195.03125 216.03125 L 194.18750 210.96875 z M 188.46875 211.81250 C 187.80624 211.92402 187.35639 212.29066 187.09375 212.87500 C 186.83330 213.45626 186.80082 214.22103 186.96875 215.21875 C 187.07588 215.85522 187.31394 216.20473 187.53125 216.62500 C 187.77074 216.60911 188.01051 216.57921 188.25000 216.56250 C 188.04475 216.19271 187.86209 215.75973 187.75000 215.09375 C 187.61317 214.28079 187.61209 213.65724 187.75000 213.21875 C 187.89010 212.77718 188.18199 212.50681 188.59375 212.43750 C 189.00815 212.36776 189.35071 212.53443 189.62500 212.90625 C 189.90149 213.27500 190.11316 213.87454 190.25000 214.68750 C 190.37502 215.43030 190.35731 215.97331 190.25000 216.40625 C 190.47915 216.38812 190.70835 216.36259 190.93750 216.34375 C 191.06017 215.82358 191.15906 215.29062 191.03125 214.53125 C 190.86332 213.53353 190.56401 212.80728 190.12500 212.34375 C 189.68818 211.87714 189.13126 211.70100 188.46875 211.81250 z M 183.87500 212.71875 L 183.06250 212.84375 L 183.00000 212.87500 L 183.00000 213.62500 L 183.18750 213.56250 L 183.78125 216.90625 C 184.04142 216.89383 184.30233 216.85721 184.56250 216.84375 L 183.87500 212.71875 z "
       id="text2123" />
    <path
       style="fill:none;fill-opacity:0.75000000;fill-rule:evenodd;stroke:#db0000;stroke-width:1.2500000;stroke-linecap:butt;stroke-linejoin:miter;stroke-miterlimit:4.0000000;stroke-dasharray:none;stroke-opacity:1.0000000"
       d="M 176.00355,381.49420 C 177.98365,381.42236 184.95195,403.60713 186.88806,403.27719 C 188.82418,402.94725 188.05058,391.39296 190.37392,390.99703 C 192.69725,390.60110 192.14273,392.02358 193.69162,391.75962 C 195.24051,391.49567 195.47853,385.87764 197.80186,385.48171 C 200.12519,385.08579 206.33631,412.18028 209.00289,411.46026 C 211.66946,410.74025 210.45518,408.29125 212.39129,407.96131 C 214.32741,407.63137 213.42965,409.37792 215.36575,409.04798 C 217.30186,408.71804 216.57311,385.73557 219.28366,385.27366 C 221.99422,384.81175 223.79753,395.39378 226.12087,394.99786 C 228.44420,394.60193 226.63141,393.31730 228.56752,392.98736 C 230.50364,392.65742 231.12804,398.65967 233.83859,398.19775 C 236.54915,397.73584 233.52050,369.30223 236.27503,369.09842 C 239.02958,368.89460 239.57066,372.25511 241.11955,371.99116 C 242.66845,371.72721 242.94907,369.82024 244.88518,369.49030 C 246.82130,369.16036 252.67192,391.80119 254.56405,391.21315 C 256.45618,390.62512 256.58898,379.71314 258.52510,379.38320 C 260.46121,379.05327 259.65141,381.31601 261.15632,380.79396 C 262.66122,380.27191 262.81127,374.13769 265.09061,373.48366 C 267.36998,372.82964 274.31155,399.53406 276.24766,399.20412 C 278.18379,398.87418 277.79000,396.28535 279.33887,396.02140 C 280.88779,395.75745 281.58082,397.76409 283.51694,397.43415 C 285.45307,397.10421 285.02354,373.53956 286.95967,373.20962 C 288.89574,372.87969 293.24235,384.35628 294.74724,383.83424 C 296.25212,383.31219 295.60102,381.82959 297.14988,381.56565 C 298.69880,381.30169 300.39692,386.58977 301.94579,386.32583 C 303.49465,386.06188 301.97420,358.43364 305.45923,357.83974 C 308.94423,357.24585 308.22240,360.02481 310.93293,359.56290"
       id="path3048"
       sodipodi:nodetypes="csssssssssssssssssssssssssss" />
    <rect
       y="434.19928"
       x="170.69656"
       height="49.956425"
       width="143.54034"
       id="rect3101"
       style="opacity:0.98802394;color:#000000;fill:url(#linearGradient5398);fill-opacity:1.0000000;fill-rule:nonzero;stroke:#838383;stroke-width:0.31677270;stroke-linecap:round;stroke-linejoin:round;marker:none;marker-start:none;marker-mid:none;marker-end:none;stroke-miterlimit:4.0000000;stroke-dasharray:none;stroke-dashoffset:0.0000000;stroke-opacity:1.0000000;visibility:visible;display:inline;overflow:visible" />
    <g
       style="stroke:#838383;stroke-opacity:1.0000000"
       id="g3969"
       transform="matrix(0.257779,0.000000,0.000000,0.176212,157.4835,306.6501)">
      <path
         id="path3959"
         d="M 54.998408,781.68559 L 604.11997,781.68559"
         style="fill:none;fill-opacity:0.75000000;fill-rule:evenodd;stroke:#838383;stroke-width:1.4862959px;stroke-linecap:butt;stroke-linejoin:miter;stroke-opacity:1.0000000"
         sodipodi:nodetypes="cc" />
      <path
         sodipodi:nodetypes="cc"
         style="fill:none;fill-opacity:0.75000000;fill-rule:evenodd;stroke:#838383;stroke-width:1.4862959px;stroke-linecap:butt;stroke-linejoin:miter;stroke-opacity:1.0000000"
         d="M 54.998408,947.68559 L 604.11997,947.68559"
         id="path3961" />
      <path
         style="fill:none;fill-opacity:0.75000000;fill-rule:evenodd;stroke:#838383;stroke-width:1.4862965px;stroke-linecap:butt;stroke-linejoin:miter;stroke-opacity:1.0000000"
         d="M 327.99961,730.02721 L 327.99961,1007.9051"
         id="path3963" />
      <path
         id="path3965"
         d="M 467.99961,730.02721 L 467.99961,1007.9051"
         style="fill:none;fill-opacity:0.75000000;fill-rule:evenodd;stroke:#838383;stroke-width:1.4862965px;stroke-linecap:butt;stroke-linejoin:miter;stroke-opacity:1.0000000" />
      <path
         style="fill:none;fill-opacity:0.75000000;fill-rule:evenodd;stroke:#838383;stroke-width:1.4862965px;stroke-linecap:butt;stroke-linejoin:miter;stroke-opacity:1.0000000"
         d="M 187.99961,730.02721 L 187.99961,1007.9051"
         id="path3967" />
    </g>
    <g
       id="g3929"
       transform="matrix(0.257779,0.000000,0.000000,0.176212,159.0302,306.6501)"
       style="fill:#434343;fill-opacity:1.0000000">
      <path
         style="fill:#434343;fill-opacity:1.0000000;fill-rule:evenodd;stroke:#000000;stroke-width:1.4862961px;stroke-linecap:butt;stroke-linejoin:miter;stroke-opacity:1.0000000"
         d="M 56.924786,864.51891 L 604.19362,864.51891"
         id="path3865" />
      <rect
         y="812.71027"
         x="61.533325"
         height="51.122570"
         width="6.3903213"
         id="rect3867"
         style="opacity:0.98802394;color:#000000;fill:#434343;fill-opacity:1.0000000;fill-rule:nonzero;stroke:none;stroke-width:2.8203804;stroke-linecap:round;stroke-linejoin:round;marker:none;marker-start:none;marker-mid:none;marker-end:none;stroke-miterlimit:4.0000000;stroke-dasharray:none;stroke-dashoffset:0.0000000;stroke-opacity:1.0000000;visibility:visible;display:inline;overflow:visible" />
      <rect
         style="opacity:0.98802394;color:#000000;fill:#434343;fill-opacity:1.0000000;fill-rule:nonzero;stroke:none;stroke-width:2.8203804;stroke-linecap:round;stroke-linejoin:round;marker:none;marker-start:none;marker-mid:none;marker-end:none;stroke-miterlimit:4.0000000;stroke-dasharray:none;stroke-dashoffset:0.0000000;stroke-opacity:1.0000000;visibility:visible;display:inline;overflow:visible"
         id="rect3873"
         width="6.3903213"
         height="66.743355"
         x="81.533325"
         y="797.08948" />
      <rect
         y="821.23071"
         x="101.53333"
         height="42.602142"
         width="6.3903213"
         id="rect3875"
         style="opacity:0.98802394;color:#000000;fill:#434343;fill-opacity:1.0000000;fill-rule:nonzero;stroke:none;stroke-width:2.8203804;stroke-linecap:round;stroke-linejoin:round;marker:none;marker-start:none;marker-mid:none;marker-end:none;stroke-miterlimit:4.0000000;stroke-dasharray:none;stroke-dashoffset:0.0000000;stroke-opacity:1.0000000;visibility:visible;display:inline;overflow:visible" />
      <rect
         style="opacity:0.98802394;color:#000000;fill:#434343;fill-opacity:1.0000000;fill-rule:nonzero;stroke:none;stroke-width:2.8203804;stroke-linecap:round;stroke-linejoin:round;marker:none;marker-start:none;marker-mid:none;marker-end:none;stroke-miterlimit:4.0000000;stroke-dasharray:none;stroke-dashoffset:0.0000000;stroke-opacity:1.0000000;visibility:visible;display:inline;overflow:visible"
         id="rect3877"
         width="6.3903213"
         height="12.780643"
         x="121.53333"
         y="851.05219" />
      <rect
         transform="scale(1.000000,-1.000000)"
         y="-883.00378"
         x="141.53333"
         height="19.170963"
         width="6.3903213"
         id="rect3879"
         style="opacity:0.98802394;color:#000000;fill:#434343;fill-opacity:1.0000000;fill-rule:nonzero;stroke:none;stroke-width:2.8203804;stroke-linecap:round;stroke-linejoin:round;marker:none;marker-start:none;marker-mid:none;marker-end:none;stroke-miterlimit:4.0000000;stroke-dasharray:none;stroke-dashoffset:0.0000000;stroke-opacity:1.0000000;visibility:visible;display:inline;overflow:visible" />
      <rect
         style="opacity:0.98802394;color:#000000;fill:#434343;fill-opacity:1.0000000;fill-rule:nonzero;stroke:none;stroke-width:2.8203804;stroke-linecap:round;stroke-linejoin:round;marker:none;marker-start:none;marker-mid:none;marker-end:none;stroke-miterlimit:4.0000000;stroke-dasharray:none;stroke-dashoffset:0.0000000;stroke-opacity:1.0000000;visibility:visible;display:inline;overflow:visible"
         id="rect3881"
         width="6.3903213"
         height="41.182072"
         x="161.53333"
         y="-905.01489"
         transform="scale(1.000000,-1.000000)" />
      <rect
         transform="scale(1.000000,-1.000000)"
         y="-954.00739"
         x="181.53333"
         height="90.174538"
         width="6.3903213"
         id="rect3883"
         style="opacity:0.98802394;color:#000000;fill:#434343;fill-opacity:1.0000000;fill-rule:nonzero;stroke:none;stroke-width:2.8203804;stroke-linecap:round;stroke-linejoin:round;marker:none;marker-start:none;marker-mid:none;marker-end:none;stroke-miterlimit:4.0000000;stroke-dasharray:none;stroke-dashoffset:0.0000000;stroke-opacity:1.0000000;visibility:visible;display:inline;overflow:visible" />
      <rect
         style="opacity:0.98802394;color:#000000;fill:#434343;fill-opacity:1.0000000;fill-rule:nonzero;stroke:none;stroke-width:2.8203804;stroke-linecap:round;stroke-linejoin:round;marker:none;marker-start:none;marker-mid:none;marker-end:none;stroke-miterlimit:4.0000000;stroke-dasharray:none;stroke-dashoffset:0.0000000;stroke-opacity:1.0000000;visibility:visible;display:inline;overflow:visible"
         id="rect3885"
         width="6.3903213"
         height="74.553749"
         x="201.53333"
         y="-938.38660"
         transform="scale(1.000000,-1.000000)" />
      <rect
         transform="scale(1.000000,-1.000000)"
         y="-888.68408"
         x="221.53333"
         height="24.851250"
         width="6.3903213"
         id="rect3887"
         style="opacity:0.98802394;color:#000000;fill:#434343;fill-opacity:1.0000000;fill-rule:nonzero;stroke:none;stroke-width:2.8203804;stroke-linecap:round;stroke-linejoin:round;marker:none;marker-start:none;marker-mid:none;marker-end:none;stroke-miterlimit:4.0000000;stroke-dasharray:none;stroke-dashoffset:0.0000000;stroke-opacity:1.0000000;visibility:visible;display:inline;overflow:visible" />
      <rect
         style="opacity:0.98802394;color:#000000;fill:#434343;fill-opacity:1.0000000;fill-rule:nonzero;stroke:none;stroke-width:2.8203804;stroke-linecap:round;stroke-linejoin:round;marker:none;marker-start:none;marker-mid:none;marker-end:none;stroke-miterlimit:4.0000000;stroke-dasharray:none;stroke-dashoffset:0.0000000;stroke-opacity:1.0000000;visibility:visible;display:inline;overflow:visible"
         id="rect3889"
         width="6.3903213"
         height="12.070607"
         x="241.53333"
         y="851.76221" />
      <rect
         y="824.78082"
         x="261.53333"
         height="39.051964"
         width="6.3903213"
         id="rect3891"
         style="opacity:0.98802394;color:#000000;fill:#434343;fill-opacity:1.0000000;fill-rule:nonzero;stroke:none;stroke-width:2.8203804;stroke-linecap:round;stroke-linejoin:round;marker:none;marker-start:none;marker-mid:none;marker-end:none;stroke-miterlimit:4.0000000;stroke-dasharray:none;stroke-dashoffset:0.0000000;stroke-opacity:1.0000000;visibility:visible;display:inline;overflow:visible" />
      <rect
         style="opacity:0.98802394;color:#000000;fill:#434343;fill-opacity:1.0000000;fill-rule:nonzero;stroke:none;stroke-width:2.8203804;stroke-linecap:round;stroke-linejoin:round;marker:none;marker-start:none;marker-mid:none;marker-end:none;stroke-miterlimit:4.0000000;stroke-dasharray:none;stroke-dashoffset:0.0000000;stroke-opacity:1.0000000;visibility:visible;display:inline;overflow:visible"
         id="rect3893"
         width="6.3903213"
         height="18.460928"
         x="281.53333"
         y="845.37189" />
      <rect
         transform="scale(1.000000,-1.000000)"
         y="-868.80304"
         x="301.53333"
         height="4.9702506"
         width="6.3903213"
         id="rect3895"
         style="opacity:0.98802394;color:#000000;fill:#434343;fill-opacity:1.0000000;fill-rule:nonzero;stroke:none;stroke-width:2.8203804;stroke-linecap:round;stroke-linejoin:round;marker:none;marker-start:none;marker-mid:none;marker-end:none;stroke-miterlimit:4.0000000;stroke-dasharray:none;stroke-dashoffset:0.0000000;stroke-opacity:1.0000000;visibility:visible;display:inline;overflow:visible" />
      <rect
         style="opacity:0.98802394;color:#000000;fill:#434343;fill-opacity:1.0000000;fill-rule:nonzero;stroke:none;stroke-width:2.8203804;stroke-linecap:round;stroke-linejoin:round;marker:none;marker-start:none;marker-mid:none;marker-end:none;stroke-miterlimit:4.0000000;stroke-dasharray:none;stroke-dashoffset:0.0000000;stroke-opacity:1.0000000;visibility:visible;display:inline;overflow:visible"
         id="rect3897"
         width="6.3903213"
         height="10.650536"
         x="321.53333"
         y="853.18225" />
      <rect
         y="810.58008"
         x="341.53333"
         height="53.252678"
         width="6.3903213"
         id="rect3899"
         style="opacity:0.98802394;color:#000000;fill:#434343;fill-opacity:1.0000000;fill-rule:nonzero;stroke:none;stroke-width:2.8203804;stroke-linecap:round;stroke-linejoin:round;marker:none;marker-start:none;marker-mid:none;marker-end:none;stroke-miterlimit:4.0000000;stroke-dasharray:none;stroke-dashoffset:0.0000000;stroke-opacity:1.0000000;visibility:visible;display:inline;overflow:visible" />
      <rect
         style="opacity:0.98802394;color:#000000;fill:#434343;fill-opacity:1.0000000;fill-rule:nonzero;stroke:none;stroke-width:2.8203804;stroke-linecap:round;stroke-linejoin:round;marker:none;marker-start:none;marker-mid:none;marker-end:none;stroke-miterlimit:4.0000000;stroke-dasharray:none;stroke-dashoffset:0.0000000;stroke-opacity:1.0000000;visibility:visible;display:inline;overflow:visible"
         id="rect3901"
         width="6.3903213"
         height="33.371677"
         x="361.53333"
         y="830.46106" />
      <rect
         y="786.43884"
         x="381.53333"
         height="77.393890"
         width="6.3903213"
         id="rect3903"
         style="opacity:0.98802394;color:#000000;fill:#434343;fill-opacity:1.0000000;fill-rule:nonzero;stroke:none;stroke-width:2.8203804;stroke-linecap:round;stroke-linejoin:round;marker:none;marker-start:none;marker-mid:none;marker-end:none;stroke-miterlimit:4.0000000;stroke-dasharray:none;stroke-dashoffset:0.0000000;stroke-opacity:1.0000000;visibility:visible;display:inline;overflow:visible" />
      <rect
         style="opacity:0.98802394;color:#000000;fill:#434343;fill-opacity:1.0000000;fill-rule:nonzero;stroke:none;stroke-width:2.8203804;stroke-linecap:round;stroke-linejoin:round;marker:none;marker-start:none;marker-mid:none;marker-end:none;stroke-miterlimit:4.0000000;stroke-dasharray:none;stroke-dashoffset:0.0000000;stroke-opacity:1.0000000;visibility:visible;display:inline;overflow:visible"
         id="rect3905"
         width="6.3903213"
         height="73.843712"
         x="401.53333"
         y="789.98901" />
      <rect
         y="808.44995"
         x="421.53333"
         height="55.382782"
         width="6.3903213"
         id="rect3907"
         style="opacity:0.98802394;color:#000000;fill:#434343;fill-opacity:1.0000000;fill-rule:nonzero;stroke:none;stroke-width:2.8203804;stroke-linecap:round;stroke-linejoin:round;marker:none;marker-start:none;marker-mid:none;marker-end:none;stroke-miterlimit:4.0000000;stroke-dasharray:none;stroke-dashoffset:0.0000000;stroke-opacity:1.0000000;visibility:visible;display:inline;overflow:visible" />
      <rect
         style="opacity:0.98802394;color:#000000;fill:#434343;fill-opacity:1.0000000;fill-rule:nonzero;stroke:none;stroke-width:2.8203804;stroke-linecap:round;stroke-linejoin:round;marker:none;marker-start:none;marker-mid:none;marker-end:none;stroke-miterlimit:4.0000000;stroke-dasharray:none;stroke-dashoffset:0.0000000;stroke-opacity:1.0000000;visibility:visible;display:inline;overflow:visible"
         id="rect3909"
         width="6.3903213"
         height="36.921852"
         x="441.53333"
         y="826.91089" />
      <rect
         y="807.73993"
         x="461.53333"
         height="56.092815"
         width="6.3903213"
         id="rect3911"
         style="opacity:0.98802394;color:#000000;fill:#434343;fill-opacity:1.0000000;fill-rule:nonzero;stroke:none;stroke-width:2.8203804;stroke-linecap:round;stroke-linejoin:round;marker:none;marker-start:none;marker-mid:none;marker-end:none;stroke-miterlimit:4.0000000;stroke-dasharray:none;stroke-dashoffset:0.0000000;stroke-opacity:1.0000000;visibility:visible;display:inline;overflow:visible" />
      <rect
         style="opacity:0.98802394;color:#000000;fill:#434343;fill-opacity:1.0000000;fill-rule:nonzero;stroke:none;stroke-width:2.8203804;stroke-linecap:round;stroke-linejoin:round;marker:none;marker-start:none;marker-mid:none;marker-end:none;stroke-miterlimit:4.0000000;stroke-dasharray:none;stroke-dashoffset:0.0000000;stroke-opacity:1.0000000;visibility:visible;display:inline;overflow:visible"
         id="rect3913"
         width="6.3903213"
         height="28.401423"
         x="481.53333"
         y="835.43134" />
      <rect
         y="854.60229"
         x="501.53333"
         height="9.2304583"
         width="6.3903213"
         id="rect3915"
         style="opacity:0.98802394;color:#000000;fill:#434343;fill-opacity:1.0000000;fill-rule:nonzero;stroke:none;stroke-width:2.8203804;stroke-linecap:round;stroke-linejoin:round;marker:none;marker-start:none;marker-mid:none;marker-end:none;stroke-miterlimit:4.0000000;stroke-dasharray:none;stroke-dashoffset:0.0000000;stroke-opacity:1.0000000;visibility:visible;display:inline;overflow:visible" />
      <rect
         transform="scale(1.000000,-1.000000)"
         style="opacity:0.98802394;color:#000000;fill:#434343;fill-opacity:1.0000000;fill-rule:nonzero;stroke:none;stroke-width:2.8203804;stroke-linecap:round;stroke-linejoin:round;marker:none;marker-start:none;marker-mid:none;marker-end:none;stroke-miterlimit:4.0000000;stroke-dasharray:none;stroke-dashoffset:0.0000000;stroke-opacity:1.0000000;visibility:visible;display:inline;overflow:visible"
         id="rect3917"
         width="6.3903213"
         height="19.881006"
         x="521.53333"
         y="-883.71375" />
      <rect
         y="-905.01483"
         x="541.53333"
         height="41.182079"
         width="6.3903213"
         id="rect3919"
         style="opacity:0.98802394;color:#000000;fill:#434343;fill-opacity:1.0000000;fill-rule:nonzero;stroke:none;stroke-width:2.8203804;stroke-linecap:round;stroke-linejoin:round;marker:none;marker-start:none;marker-mid:none;marker-end:none;stroke-miterlimit:4.0000000;stroke-dasharray:none;stroke-dashoffset:0.0000000;stroke-opacity:1.0000000;visibility:visible;display:inline;overflow:visible"
         transform="scale(1.000000,-1.000000)" />
      <rect
         transform="scale(1.000000,-1.000000)"
         style="opacity:0.98802394;color:#000000;fill:#434343;fill-opacity:1.0000000;fill-rule:nonzero;stroke:none;stroke-width:2.8203804;stroke-linecap:round;stroke-linejoin:round;marker:none;marker-start:none;marker-mid:none;marker-end:none;stroke-miterlimit:4.0000000;stroke-dasharray:none;stroke-dashoffset:0.0000000;stroke-opacity:1.0000000;visibility:visible;display:inline;overflow:visible"
         id="rect3923"
         width="6.3903213"
         height="58.222935"
         x="561.53333"
         y="-922.05566" />
      <rect
         y="-914.95532"
         x="581.53333"
         height="51.122578"
         width="6.3903213"
         id="rect3925"
         style="opacity:0.98802394;color:#000000;fill:#434343;fill-opacity:1.0000000;fill-rule:nonzero;stroke:none;stroke-width:2.8203804;stroke-linecap:round;stroke-linejoin:round;marker:none;marker-start:none;marker-mid:none;marker-end:none;stroke-miterlimit:4.0000000;stroke-dasharray:none;stroke-dashoffset:0.0000000;stroke-opacity:1.0000000;visibility:visible;display:inline;overflow:visible"
         transform="scale(1.000000,-1.000000)" />
    </g>
    <g
       id="g3317"
       style="stroke:#fff403;stroke-opacity:1.0000000"
       transform="matrix(0.975844,0.000000,0.000000,1.000000,0.127225,54.01949)">
      <path
         sodipodi:nodetypes="cs"
         id="path3081"
         d="M 175.31202,419.17298 C 202.32965,419.17298 217.61435,390.77139 248.40151,390.77139"
         style="fill:none;fill-opacity:0.75000000;fill-rule:evenodd;stroke:#fff403;stroke-width:1.2826769;stroke-linecap:butt;stroke-linejoin:miter;stroke-miterlimit:4.0000000;stroke-dasharray:none;stroke-opacity:1.0000000" />
      <path
         style="fill:none;fill-opacity:0.75000000;fill-rule:evenodd;stroke:#fff403;stroke-width:1.2826769;stroke-linecap:butt;stroke-linejoin:miter;stroke-miterlimit:4.0000000;stroke-dasharray:none;stroke-opacity:1.0000000"
         d="M 321.41815,419.17298 C 294.40052,419.17298 279.11582,390.77139 248.32866,390.77139"
         id="path3083"
         sodipodi:nodetypes="cs" />
      <path
         style="fill:none;fill-opacity:0.75000000;fill-rule:evenodd;stroke:#fff403;stroke-width:1.2826769;stroke-linecap:butt;stroke-linejoin:miter;stroke-miterlimit:4.0000000;stroke-dasharray:none;stroke-opacity:1.0000000"
         d="M 175.31202,390.77131 C 202.32965,390.77131 217.61435,419.17289 248.40151,419.17289"
         id="path3097"
         sodipodi:nodetypes="cs" />
      <path
         sodipodi:nodetypes="cs"
         id="path3099"
         d="M 321.41815,390.77131 C 294.40052,390.77131 279.11582,419.17289 248.32866,419.17289"
         style="fill:none;fill-opacity:0.75000000;fill-rule:evenodd;stroke:#fff403;stroke-width:1.2826769;stroke-linecap:butt;stroke-linejoin:miter;stroke-miterlimit:4.0000000;stroke-dasharray:none;stroke-opacity:1.0000000" />
    </g>
    <g
       id="g3346"
       transform="matrix(0.975844,0.000000,0.000000,1.000000,0.127225,54.01949)">
      <path
         sodipodi:nodetypes="czzzzz"
         id="path3073"
         d="M 207.27065,405.11945 C 217.28144,405.11945 214.97710,401.85631 218.46459,401.85631 C 221.74814,401.85631 220.50262,407.06002 223.76595,407.06002 C 226.82443,407.06002 225.99957,397.88539 229.46882,397.88645 C 232.93187,397.88645 232.71623,410.23548 236.99884,410.23548 C 241.29625,410.23548 242.10527,380.95169 248.22017,380.95169"
         style="fill:none;fill-opacity:0.75000000;fill-rule:evenodd;stroke:#ff0606;stroke-width:1.2500000;stroke-linecap:round;stroke-linejoin:round;stroke-miterlimit:4.0000000;stroke-dasharray:none;stroke-opacity:1.0000000" />
      <path
         style="fill:none;fill-opacity:0.75000000;fill-rule:evenodd;stroke:#ff0606;stroke-width:1.2500000;stroke-linecap:round;stroke-linejoin:round;stroke-miterlimit:4.0000000;stroke-dasharray:none;stroke-opacity:1.0000000"
         d="M 289.10417,405.11945 C 279.09339,405.11945 281.39772,401.85631 277.91023,401.85631 C 274.62668,401.85631 275.87221,407.06002 272.60888,407.06002 C 269.55040,407.06002 270.37525,397.88539 266.90601,397.88645 C 263.44296,397.88645 263.65859,410.23548 259.37598,410.23548 C 255.07858,410.23548 254.26956,380.95169 248.15466,380.95169"
         id="path3075"
         sodipodi:nodetypes="czzzzz" />
      <path
         sodipodi:nodetypes="cc"
         id="path3077"
         d="M 207.28253,405.10942 L 174.66500,405.10942"
         style="fill:none;fill-opacity:0.75000000;fill-rule:evenodd;stroke:#ff0606;stroke-width:1.2500000;stroke-linecap:round;stroke-linejoin:round;stroke-miterlimit:4.0000000;stroke-dasharray:none;stroke-opacity:1.0000000" />
      <path
         style="fill:none;fill-opacity:0.75000000;fill-rule:evenodd;stroke:#ff0606;stroke-width:1.2500000;stroke-linecap:round;stroke-linejoin:round;stroke-miterlimit:4.0000000;stroke-dasharray:none;stroke-opacity:1.0000000"
         d="M 321.59501,405.10942 L 288.97749,405.10942"
         id="path3079"
         sodipodi:nodetypes="cc" />
    </g>
    <path
       style="opacity:0.98802394;color:#000000;fill:url(#linearGradient3130);fill-opacity:1.0000000;fill-rule:nonzero;stroke:#000000;stroke-width:1.0000000;stroke-linecap:round;stroke-linejoin:round;marker:none;marker-start:none;marker-mid:none;marker-end:none;stroke-miterlimit:4.0000000;stroke-dashoffset:0.0000000;stroke-opacity:1.0000000;visibility:visible;display:inline;overflow:visible"
       d="M 315.42306,336.45699 C 267.23225,336.45699 219.05137,356.45699 170.86056,356.45699 C 170.86056,384.64862 170.86056,412.85910 170.86056,441.05074 C 219.05137,441.05074 267.23226,421.05073 315.42306,421.05074 C 315.42306,392.85911 315.42307,364.64862 315.42306,336.45699 z M 306.98556,351.83199 L 306.98556,406.42574 C 286.96376,407.33045 266.94447,411.07520 246.92306,415.17574 L 246.92306,360.58199 C 266.94442,356.48142 286.96370,352.73670 306.98556,351.83199 z M 238.98556,362.11324 L 238.98556,416.70699 C 218.96486,420.80567 198.94454,424.80023 178.92306,425.67574 L 178.92306,371.08199 C 198.94464,370.20654 218.96491,366.21194 238.98556,362.11324 z "
       id="path3118" />
    <path
       style="fill:url(#linearGradient5421);fill-opacity:1.0000000;fill-rule:evenodd;stroke:none;stroke-width:1.0000000px;stroke-linecap:butt;stroke-linejoin:miter;stroke-opacity:1.0000000"
       d="M 151.74979,363.19675 C 167.12984,391.39350 160.03095,420.61092 199.42794,407.79888 C 262.48612,387.29216 245.05541,361.14608 319.39230,368.83610 C 372.39979,374.31964 372.19713,306.29058 372.19713,306.29058 C 372.19713,306.29058 217.88399,260.15044 208.65597,265.27712 C 199.42794,270.40380 151.74979,363.19675 151.74979,363.19675 z "
       id="path5412"
       sodipodi:nodetypes="csscsc" />
    <path
       sodipodi:nodetypes="ccccc"
       id="path5423"
       d="M 170.93265,356.75897 C 219.12346,356.75897 267.31427,336.75897 315.50508,336.75897 C 315.50508,364.95060 315.50508,393.14222 315.50508,421.33385 C 267.31427,421.33385 219.12346,441.33385 170.93265,441.33385 C 170.93265,413.14222 170.93265,384.95060 170.93265,356.75897 z "
       style="opacity:0.98802394;color:#000000;fill:url(#linearGradient5435);fill-opacity:1.0;fill-rule:nonzero;stroke:#000000;stroke-width:1.0000000;stroke-linecap:round;stroke-linejoin:round;marker:none;marker-start:none;marker-mid:none;marker-end:none;stroke-miterlimit:4.0000000;stroke-dashoffset:0.0000000;stroke-opacity:1.0000000;visibility:visible;display:inline;overflow:visible" />
    <path
       sodipodi:nodetypes="cccccccccc"
       id="path5427"
       d="M 306.96115,351.79363 C 286.93929,352.69833 266.92001,356.44306 246.89865,360.54363 L 246.89865,415.13738 C 266.92006,411.03683 286.93935,407.29209 306.96115,406.38738 L 306.96115,351.79363 z M 238.96115,362.07488 C 218.94050,366.17357 198.92023,370.16818 178.89865,371.04363 L 178.89865,425.63738 C 198.92013,424.76186 218.94045,420.76731 238.96115,416.66863 L 238.96115,362.07488 z "
       style="opacity:0.98802394;color:#000000;fill:none;fill-opacity:1.0000000;fill-rule:nonzero;stroke:#000000;stroke-width:1.0000000;stroke-linecap:round;stroke-linejoin:round;marker:none;marker-start:none;marker-mid:none;marker-end:none;stroke-miterlimit:4.0000000;stroke-dashoffset:0.0000000;stroke-opacity:1.0000000;visibility:visible;display:inline;overflow:visible" />
    <g
       style="fill:#ffffff;fill-opacity:1.0000000"
       id="g3122"
       transform="translate(-4.076943,208.7120)">
      <path
         style="opacity:0.98802394;color:#000000;fill:#ffffff;fill-opacity:1.0000000;fill-rule:nonzero;stroke:#000000;stroke-width:1.0000000;stroke-linecap:round;stroke-linejoin:round;marker:none;marker-start:none;marker-mid:none;marker-end:none;stroke-miterlimit:4.0000000;stroke-dashoffset:0.0000000;stroke-opacity:1.0000000;visibility:visible;display:inline;overflow:visible"
         d="M 319.34375,132.25000 L 319.34375,138.25000 C 319.39574,138.24995 319.44801,138.25000 319.50000,138.25000 C 319.50000,135.58393 319.50000,134.91607 319.50000,132.25000 C 319.44801,132.25000 319.39574,132.24995 319.34375,132.25000 z M 314.25000,132.50000 C 312.61359,132.54756 310.98014,132.66124 309.34375,132.75000 L 309.34375,138.75000 C 310.98014,138.66124 312.61359,138.54756 314.25000,138.50000 L 314.25000,132.50000 z M 304.25000,133.00000 C 302.61564,133.12807 300.97810,133.21219 299.34375,133.37500 L 299.34375,139.37500 C 300.97810,139.21219 302.61564,139.12807 304.25000,139.00000 L 304.25000,133.00000 z M 294.25000,134.03125 C 292.61735,134.22662 290.97638,134.40131 289.34375,134.62500 L 289.34375,140.62500 C 290.97638,140.40131 292.61735,140.22662 294.25000,140.03125 L 294.25000,134.03125 z M 284.25000,135.25000 C 282.61317,135.50045 280.98057,135.82122 279.34375,136.09375 L 279.34375,142.09375 C 280.98057,141.82122 282.61317,141.50045 284.25000,141.25000 L 284.25000,135.25000 z M 274.25000,136.96875 C 272.61338,137.26084 270.98036,137.53596 269.34375,137.84375 L 269.34375,143.84375 C 270.98036,143.53596 272.61338,143.26084 274.25000,142.96875 L 274.25000,136.96875 z M 264.25000,138.78125 C 262.61403,139.10190 260.97972,139.45130 259.34375,139.78125 L 259.34375,145.78125 C 260.97972,145.45130 262.61403,145.10190 264.25000,144.78125 L 264.25000,138.78125 z M 254.25000,140.81250 C 252.61404,141.14880 250.97971,141.47328 249.34375,141.81250 L 249.34375,147.81250 C 250.97971,147.47328 252.61404,147.14880 254.25000,146.81250 L 254.25000,140.81250 z M 244.25000,142.84375 C 242.61404,143.18269 240.97971,143.50827 239.34375,143.84375 L 239.34375,149.84375 C 240.97971,149.50827 242.61404,149.18269 244.25000,148.84375 L 244.25000,142.84375 z M 234.25000,144.90625 C 232.61403,145.23482 230.97972,145.58752 229.34375,145.90625 L 229.34375,151.90625 C 230.97972,151.58752 232.61403,151.23482 234.25000,150.90625 L 234.25000,144.90625 z M 224.25000,146.81250 C 222.61517,147.11748 220.97858,147.36747 219.34375,147.65625 L 219.34375,153.65625 C 220.97858,153.36747 222.61517,153.11748 224.25000,152.81250 L 224.25000,146.81250 z M 214.25000,148.56250 C 212.61454,148.83123 210.97922,149.09761 209.34375,149.34375 L 209.34375,155.34375 C 210.97922,155.09761 212.61454,154.83123 214.25000,154.56250 L 214.25000,148.56250 z M 204.25000,149.96875 C 202.61609,150.18796 200.97767,150.40344 199.34375,150.59375 L 199.34375,156.59375 C 200.97767,156.40344 202.61609,156.18796 204.25000,155.96875 L 204.25000,149.96875 z M 194.25000,151.21875 C 192.61436,151.37594 190.97941,151.44064 189.34375,151.56250 L 189.34375,157.56250 C 190.97941,157.44064 192.61436,157.37594 194.25000,157.21875 L 194.25000,151.21875 z M 184.25000,151.81250 C 182.61411,151.89437 180.97966,151.99110 179.34375,152.03125 L 179.34375,158.03125 C 180.97966,157.99110 182.61411,157.89437 184.25000,157.81250 L 184.25000,151.81250 z "
         id="path3124" />
      <path
         id="path3126"
         d="M 319.34375,202.25000 L 319.34375,208.25000 C 319.39574,208.24995 319.44801,208.25000 319.50000,208.25000 C 319.50000,205.58393 319.50000,204.91607 319.50000,202.25000 C 319.44801,202.25000 319.39574,202.24995 319.34375,202.25000 z M 314.25000,202.50000 C 312.61359,202.54756 310.98014,202.66124 309.34375,202.75000 L 309.34375,208.75000 C 310.98014,208.66124 312.61359,208.54756 314.25000,208.50000 L 314.25000,202.50000 z M 304.25000,203.00000 C 302.61564,203.12807 300.97810,203.21219 299.34375,203.37500 L 299.34375,209.37500 C 300.97810,209.21219 302.61564,209.12807 304.25000,209.00000 L 304.25000,203.00000 z M 294.25000,204.03125 C 292.61735,204.22662 290.97638,204.40131 289.34375,204.62500 L 289.34375,210.62500 C 290.97638,210.40131 292.61735,210.22662 294.25000,210.03125 L 294.25000,204.03125 z M 284.25000,205.25000 C 282.61317,205.50045 280.98057,205.82122 279.34375,206.09375 L 279.34375,212.09375 C 280.98057,211.82122 282.61317,211.50045 284.25000,211.25000 L 284.25000,205.25000 z M 274.25000,206.96875 C 272.61338,207.26084 270.98036,207.53596 269.34375,207.84375 L 269.34375,213.84375 C 270.98036,213.53596 272.61338,213.26084 274.25000,212.96875 L 274.25000,206.96875 z M 264.25000,208.78125 C 262.61403,209.10190 260.97972,209.45130 259.34375,209.78125 L 259.34375,215.78125 C 260.97972,215.45130 262.61403,215.10190 264.25000,214.78125 L 264.25000,208.78125 z M 254.25000,210.81250 C 252.61404,211.14880 250.97971,211.47328 249.34375,211.81250 L 249.34375,217.81250 C 250.97971,217.47328 252.61404,217.14880 254.25000,216.81250 L 254.25000,210.81250 z M 244.25000,212.84375 C 242.61404,213.18269 240.97971,213.50827 239.34375,213.84375 L 239.34375,219.84375 C 240.97971,219.50827 242.61404,219.18269 244.25000,218.84375 L 244.25000,212.84375 z M 234.25000,214.90625 C 232.61403,215.23482 230.97972,215.58752 229.34375,215.90625 L 229.34375,221.90625 C 230.97972,221.58752 232.61403,221.23482 234.25000,220.90625 L 234.25000,214.90625 z M 224.25000,216.81250 C 222.61517,217.11748 220.97858,217.36747 219.34375,217.65625 L 219.34375,223.65625 C 220.97858,223.36747 222.61517,223.11748 224.25000,222.81250 L 224.25000,216.81250 z M 214.25000,218.56250 C 212.61454,218.83123 210.97922,219.09761 209.34375,219.34375 L 209.34375,225.34375 C 210.97922,225.09761 212.61454,224.83123 214.25000,224.56250 L 214.25000,218.56250 z M 204.25000,219.96875 C 202.61609,220.18796 200.97767,220.40344 199.34375,220.59375 L 199.34375,226.59375 C 200.97767,226.40344 202.61609,226.18796 204.25000,225.96875 L 204.25000,219.96875 z M 194.25000,221.21875 C 192.61436,221.37594 190.97941,221.44064 189.34375,221.56250 L 189.34375,227.56250 C 190.97941,227.44064 192.61436,227.37594 194.25000,227.21875 L 194.25000,221.21875 z M 184.25000,221.81250 C 182.61411,221.89437 180.97966,221.99110 179.34375,222.03125 L 179.34375,228.03125 C 180.97966,227.99110 182.61411,227.89437 184.25000,227.81250 L 184.25000,221.81250 z "
         style="opacity:0.98802394;color:#000000;fill:#ffffff;fill-opacity:1.0000000;fill-rule:nonzero;stroke:#000000;stroke-width:1.0000000;stroke-linecap:round;stroke-linejoin:round;marker:none;marker-start:none;marker-mid:none;marker-end:none;stroke-miterlimit:4.0000000;stroke-dashoffset:0.0000000;stroke-opacity:1.0000000;visibility:visible;display:inline;overflow:visible" />
    </g>
  </g>
</svg>
