/* XPM */
static char * mgm_vertical_xpm[] = {
"55 200 33 1",
" 	c None",
".	c #0B1012",
"+	c #5E8C98",
"@	c #86D0E0",
"#	c #3F4C62",
"$	c #546E88",
"%	c #71ABB9",
"&	c #485E71",
"*	c #676F9E",
"=	c #828DBE",
"-	c #C6CDEA",
";	c #A7ABBA",
">	c #747EB1",
",	c #586085",
"'	c #6A9AAA",
")	c #4B5068",
"!	c #7FBCCA",
"~	c #B7C8E3",
"{	c #29333C",
"]	c #E1E9F4",
"^	c #3D404B",
"/	c #A9B6E0",
"(	c #849BC5",
"_	c #F9F9F8",
":	c #D6D9DF",
"<	c #ABDEE7",
"[	c #162123",
"}	c #537E87",
"|	c #8AD8E6",
"1	c #87AEBB",
"2	c #96979B",
"3	c #BCBEC2",
"4	c #6E8C9E",
"                    #&1@@@@@@@@!4)                     ",
"                  '@|||@}$%|||%@@@@!&                  ",
"                1||%$!|}$'{||%[%|@}'@<&                ",
"                ]<+$%!|$&%{@@${+||%{$@3                ",
"               #:]$#'^@%#$+|%}$$||}&<<(                ",
"           1%  &!]/[}#@|@@||@@!!|!{'<<+#^}~>           ",
"          @@|!+}+:~>}(%1%'4+4%@|||!!<1}+%]]<4          ",
"         @@}'|%'4*>>>>**>**^^  ^$//;;/(%<_]!|4         ",
"        @|+'%'(>***>>**>>,***  );////;((]_4[!@4        ",
"       '@|&&},,)#)),)#,*,###,*=/////>>>>(=#&%%@        ",
"      4@||%{)*),))))))###)))#,*=//(=>>>>*4{#[&@@       ",
"      @!}|!,,**))))))))))))))##)==*>>>>*,('^$|||'      ",
"     !|%}#$,***,))))))##)##))))),>;=>>>**'!}|||!|,     ",
"    $|'..^)*>>**&))#^^^^#^#))))))*((>>**,*!|||+{%@     ",
"    !|@'$***>>**&#)^^^^^^^#)))))),(>>>>*,&&@%{{++@$    ",
"   ,||||%,*>>>*,))#^^^^^^^^)))))))*>/=>*,#^+@}'}%@!    ",
"   '|$}@4*>>>**)))^^)*,^^^^^)))),),*;-(>,   !%'|||@    ",
"   @@}{[&*>>>**,)#^,((*)^^^^^))))))*=~~>,   }@||@$!$   ",
"  ,||||%*>>>>>*,))*&,,)^^^^^^^),,))*>/-/*    !!!}{'!   ",
"  $|%!@(*>>>>>>*,>;,#))#^^^^)*>>>*,**/-/;*   '%{&++@   ",
"  !@+&{&*>>*=/;=*(;>)))^^^#,*>>,****>~-~/=   }@@||@|&  ",
"  @@&[{+*>;/////>*>>,))^^^)***)#),**>3:--=    @|||||$  ",
"  @@{#}+>;//////;***)#)),,,)#^##))**>>;--=    !!%%+@$  ",
"  @|@@!4>;///---~=,)#^),,))#^^^^^))>>>>/-2    !&{{#!$  ",
"  @||||@>=//~---::=#{^***))*&#^^^#)>>>>=-]/   !+'}$!}  ",
"  @|@'#!4>;~----]]:~;~;>*,)*,))))^)>>>=;/-]3  4}!@!|}  ",
"  @![.#!4*(---:]]]]]://=>,))))###^#,*>;///]]2)#),|||$  ",
"  @@$##'4*>-]]]]]]]]-~//>)),#^^#),****;///-]]*#)#+%@$  ",
"  @|||!!+^,=-:]]]]]:---/*)**)^#)*>>,***(///-]-#)#^#@$  ",
"  !|||||'  &>/]]]]]:--~*))),,)),,**,),*=///3]_2{[{}|&  ",
"  $@@${#!   )*>/:]]:-;,#))))**))#&*,)))*=///:]]@@'@@   ",
"  ,@%[}'')   *>*,,>=*)^^^))#)&))&)))))))*>>(~:]]@|@!   ",
"   @!$}[$}   *>,&*#^{^^^^^#)))))*))))))##,*-]~]_]@@}   ",
"   !@}[&!!  )*>**,#^{^^^^^^#)))),**,##))#)(-2#)=~@@&   ",
"   }@||||%4,*,),*#^^^^^^{^^#))#^#,****,)&=--(#^{>@!    ",
"   )!||@&['=*#)^^^^^##^^^{^^))#^^#)*****>/:_-=*)>@$    ",
"    +|![.{&!*,)#^#))))^^^{{^#))#^^^)**>*,>~:~;**(!     ",
"    )!|+$[{$%*))))))))#^^^{{^#^^^^^#)))))**>==*>!$     ",
"     }@|$[}!@',))*,))))#^^^^^^^^^^^^))),**=>&^&!+      ",
"      4@%}@|@@',,**,))#))^^^^^^^^{{#)  ^%!(>**!@       ",
"       !@||@@@@%***)#,)))^^)#^^^^{)    !@@@@@@@        ",
"       )@@@@@@@@!>*,)*))#^#)))#^^)^  &@@@@@@@@4        ",
"        ,@@@@@@@@@%***&##^))))))),^)!@@@@@@@@4         ",
"          @@@@@@@@@@%4*)##))))#^,+!@@@@@@@@@4          ",
"           1@@@@@@@@@@@!'++44'%!@@@@@@@@@@@&           ",
"            '@@@@@@@@@@@@@@@@@@@@@@@@@@@@@             ",
"             &!@@@@@@@@@@@@@@@@@@@@@@@@@4              ",
"               &!@@@@@@@@@@@@@@@@@@@@@4                ",
"                  '@@@@@@@@@@@@@@@@!&                  ",
"                     &1@@@@@@@@!4)                     ",
"                                                       ",
"                                                       ",
"                                                       ",
"                                                       ",
"                                  32                   ",
"                                   *32                 ",
"                                    ^*3                ",
"                                  >3;>))               ",
"                                  3::__3               ",
"                                  2>^^>*               ",
"                                  )]2>^                ",
"                                  3____;               ",
"                                  2>^)>2               ",
"                                  2]>)^                ",
"                                  2]___2               ",
"                                  )^^>;2               ",
"               ,)           ))    3_3;>^               ",
"               ,)           ,,    *]3:__3              ",
"               ,,           ,,    3>^^3;3;             ",
"               ,>***********>,    2]*^23^_             ",
"               ,>>>>>>>>>>>>>,     2___;>_             ",
"               ,>>>>>>>>>>>>>,      ^>>^3;             ",
"               ,>>>>>>>>>>>>>,    >3;>)                ",
"               ,>>>>>>>>>>>>>,    3::__3               ",
"               ,>>>>>>>>>>>>>,    2>^^>*               ",
"               ,>*,)))))))))*,    )]2>^                ",
"               ,>>*#^       ,,    3____;               ",
"                )*>>,       ,,    2>^)>2               ",
"                 #,>>,#     )     2]>)^                ",
"                   ,*>*)          2]___2               ",
"                    )*>>,        3*^^>;2               ",
"                      ,>>*)       23*^                 ",
"                       )*>*,       ^23*                ",
"                       )*>>>,     >>^^22               ",
"                      )>>>>>>#    ;__]3>)              ",
"                     ,>>>>>>>#    >3>2__]*             ",
"                   )*>>>>>>>,     32^^22>:             ",
"                  )*>>>>>>*)      *_;>33^_             ",
"                 ,>>>>>>>*#        )3__>;]             ",
"               )*>>>>>>>,         ;>    2>             ",
"               ,>>>>>>*)          *2^                  ",
"               ,>>>>>*)     ))    3_:2>                ",
"               ,>>>>,       ,,    *23__3               ",
"               ,>>*)^       ,,    ^*>))*               ",
"               ,>*&#######),*,    >___3^               ",
"               ,>>*********>>,    33^*]2               ",
"               ,>>>>>>>>>>>>>,    32^^>3               ",
"               ,*,,,,,,,,,,,*,    *_;>33               ",
"               ,,           ,,     *:_]*               ",
"               ,)           ,,                         ",
"                #                     *2               ",
"                                      *]               ",
"                                   3;>*^               ",
"                       *)         3]]__3               ",
"                &,,)   *****,     ;>^)>2               ",
"               )>>>,   *>>>>*#  3333)^^                ",
"               ,>>*)   *>>>>>)  >3___]3>               ",
"               ,>*)    *>>>>>)    ^)>;:3               ",
"               *>,     *>>>>>,    );32)                ",
"               **      *>>>>>,    ;]3]])               ",
"               *,      ******,    ;>^^3;               ",
"               *)      *)   ,*    >3)^>3               ",
"               *)      ,#   ),    3__3_2)              ",
"               *)      ,    ),    ^*>3:___             ",
"               *)           )*  3>;3>*^^>2             ",
"               *)           )*   *2:___;               ",
"               *,           ,*    )^^*22               ",
"               *,           ,*    3>^^^)               ",
"               **#         )*,    >_32:3               ",
"               ,>,        #*>,    );__:>               ",
"               )>>,#     )*>>)    3_:]3)               ",
"               )>>>*,,),,*>>>)     ) )]3               ",
"                *>>>>>>>>>>>*         )2               ",
"                ,>>>>>>>>>>>,         *2               ",
"                )>>>>>>>>>>>)         *]               ",
"                 ,>>>>>>>>>*      3]2                  ",
"                 )*>>>>>>>*)      )2]]2                ",
"                  )*>>>>>*)       *>>:_3               ",
"                   ),***,)        3_:332               ",
"                      #           );];*^               ",
"                                  *>>:_;               ",
"                                  3___]2               ",
"               ,)           ))    2*^^                 ",
"               ,)           ,,    ;_:*                 ",
"               ,,###########,,     );_:*               ",
"               ,>***********>,    233:_3               ",
"               ,>>>>>>>>>>>>>,    ;_:>>*               ",
"               ,>>>>>>>>>>>>>,    ^*;];)               ",
"               ,>>>>>>>>>>>>>,    233:_3               ",
"               ,>>>>>>>>>>>>>,    2333;*               ",
"               ,>>>>>>>>>>>>>,    3;)^                 ",
"               ,>*,)))))))),*,    >:_;)                ",
"               )*>*)^       ,,     ^*:_2               ",
"                )*>*,#      ))    3____3               ",
"                 #,>>,)     )     >]:*^                ",
"                   ,*>*)           ^*:]>               ",
"                    ),>*,#        3____3               ",
"                      ,*>*)      2*>>>*                ",
"                       )*>*,     *32^^                 ",
"                       )*>>>,     ^*32                 ",
"                      )*>>>>>#   3*^^*3                ",
"                     ,>>>>>>*     23*^^                ",
"                   ),>>>>>>>,      ^23*                ",
"                  )*>>>>>>*,          22               ",
"                 ,>>>>>>>*)        ]  **               ",
"               ),>>>>>>>,#            >]               ",
"               ,>>>>>>*,                               ",
"               ,>>>>>*)           *]_:>                ",
"               ,>>>>,       ,,    33>;_*               ",
"               ,>>*&        ,,    2>^^23               ",
"               ,>*)^      #)*,    2]2^;;               ",
"               ,>>*********>>,    2]___32>             ",
"               ,>>>>>>>>>>>>>,    *)^>23__             ",
"               ,*,,,,,,,,,,*>,   ]];>^**^              ",
"               ,,           ,,   3]___]3               ",
"               ,)           ,,   ^>*>>3>               ",
"                                 ;:>^^)                ",
"                                 ____333               ",
"                                  ;;33_;               ",
"                                  ^>*^^                ",
"                                  ;___]2               ",
"                                  32*233               ",
"                                2>22^^^                ",
"                                ;___:;>                ",
"                                  >23]_3               ",
"                                      )                ",
"                                                       ",
"                                                       ",
"                                                       ",
"                                                       ",
"                                                       ",
"                                                       ",
"                                                       ",
"                                                       ",
"                                                       ",
"                                                       ",
"                                                       ",
"                                                       ",
"                        >                              ",
"                       >_>            _3               ",
"                       >_>                             ",
">_2]>):__3  _33__>  3_]3_>^;__:> 3_>_ _3 3_>__3  >]_;_3",
">_]>):]>2_;^__2>]_^;_22]_>2_2>]]^3_3> _3^3_3>3_>*_3>:_3",
">_>  _]3;]_^_3^^3_^_:^^2_>3_333_>3_   _3^3_^^>_>3_)^)_3",
">_>  _:2333^_3  3_^_3^^>_>3_>333*3_   _3^3_  >_>3_^^^_3",
">_>  ]:^^>*^_3  3_^:_)):_>;_)^*>^3_   _3^3_  >_>2_2^;_3",
">_>  >____> _3  3_ )]__]_>)]___3 3_   _3^3_  >_>)]__]_3",
")>    )>>   >   *>   >*     >>)  *     * *>   >)^^>>^_3",
"                                                 _;^3_>",
"                                                 ;__]>^"};
